<?xml version="1.0" encoding="utf-8"?>
<svg version="1.1" xmlns:xlink="http://www.w3.org/1999/xlink" width="29px" height="34px" xmlns="http://www.w3.org/2000/svg">
  <g transform="matrix(1 0 0 1 -120 -179 )">
    <path d="M 23.8079427083333 31.2109375  C 24.0470920138889 30.9706101190476  24.1666666666667 30.6860119047619  24.1666666666667 30.3571428571429  C 24.1666666666667 30.0282738095238  24.0470920138889 29.7436755952381  23.8079427083333 29.5033482142857  C 23.5687934027778 29.2630208333333  23.2855902777778 29.1428571428571  22.9583333333333 29.1428571428571  C 22.6310763888889 29.1428571428571  22.3478732638889 29.2630208333333  22.1087239583333 29.5033482142857  C 21.8695746527778 29.7436755952381  21.75 30.0282738095238  21.75 30.3571428571429  C 21.75 30.6860119047619  21.8695746527778 30.9706101190476  22.1087239583333 31.2109375  C 22.3478732638889 31.4512648809524  22.6310763888889 31.5714285714286  22.9583333333333 31.5714285714286  C 23.2855902777778 31.5714285714286  23.5687934027778 31.4512648809524  23.8079427083333 31.2109375  Z M 25.9791666666667 19.2672991071429  C 26.3819444444444 18.0213913690476  26.5833333333333 16.8861607142857  26.5833333333333 15.8616071428571  C 26.5833333333333 13.4709821428571  25.5323350694444 12.2756696428571  23.4303385416667 12.2756696428571  C 23.1030815972222 12.2756696428571  22.7506510416667 12.3072916666667  22.373046875 12.3705357142857  C 22.1716579861111 11.9910714285714  21.8412543402778 11.6906622023809  21.3818359375 11.4693080357143  C 20.9224175347222 11.2479538690476  20.4598524305556 11.1372767857143  19.994140625 11.1372767857143  C 19.5284288194444 11.1372767857143  19.0941840277778 11.2511160714286  18.69140625 11.4787946428571  C 18.0620659722222 10.8084077380952  17.3131510416667 10.4732142857143  16.4446614583333 10.4732142857143  C 16.1299913194444 10.4732142857143  15.7807074652778 10.5364583333333  15.3968098958333 10.6629464285714  C 15.0129123263889 10.7894345238095  14.7139756944444 10.9475446428571  14.5 11.1372767857143  L 14.5 4.85714285714286  C 14.5 4.19940476190476  14.2608506944444 3.63020833333333  13.7825520833333 3.14955357142857  C 13.3042534722222 2.66889880952381  12.7378472222222 2.42857142857143  12.0833333333333 2.42857142857143  C 11.44140625 2.42857142857143  10.8781467013889 2.67522321428571  10.3935546875 3.16852678571429  C 9.90896267361111 3.66183035714286  9.66666666666667 4.22470238095238  10 4.85714285714286  L 10 15.7857142857143  C 9.41493055555556 15.7857142857143  9.10970052083333 15.6908482142857  8.7509765625 15.5011160714286  C 8.39225260416667 15.3113839285714  8.04611545138889 15.1026785714286  7.71256510416667 14.875  C 7.37901475694445 14.6473214285714  6.95106336805556 14.4386160714286  6.4287109375 14.2488839285714  C 5.90635850694444 14.0591517857143  5.37456597222222 13.9642857142857  4.83333333333333 13.9642857142857  C 3.99001736111111 13.9642857142857  3.37641059027778 14.2457217261905  2.99251302083333 14.80859375  C 2.60861545138889 15.3714657738095  2.41666666666667 16.1019345238095  2.41666666666667 17  C 2.41666666666667 17.3035714285714  3.29144965277778 17.8727678571429  5.041015625 18.7075892857143  C 5.59483506944444 19.0111607142857  6.00390625 19.2451636904762  6.26822916666667 19.4095982142857  C 7.07378472222222 19.9155505952381  7.986328125 20.6238839285714  9.005859375 21.5345982142857  C 10.025390625 22.4326636904762  10.6924913194444 23.0714285714286  11.0071614583333 23.4508928571429  C 11.724609375 24.3236607142857  12.0833333333333 25.2090773809524  12.0833333333333 26.1071428571429  L 12.0833333333333 26.7142857142857  L 24.1666666666667 26.7142857142857  L 24.1666666666667 26.1071428571429  C 24.1666666666667 25.1964285714286  24.3680555555556 24.1402529761905  24.7708333333333 22.9386160714286  C 25.1736111111111 21.7369791666667  25.5763888888889 20.5132068452381  25.9791666666667 19.2672991071429  Z M 27.4801432291667 11.4598214285714  C 28.4933810763889 12.547619047619  29 13.9832589285714  29 15.7667410714286  C 29 17.4490327380952  28.5657552083333 19.4854910714286  27.697265625 21.8761160714286  C 26.9546440972222 23.9505208333333  26.5833333333333 25.3608630952381  26.5833333333333 26.1071428571429  L 26.5833333333333 31.5714285714286  C 26.5833333333333 32.2418154761905  26.3473307291667 32.8141741071429  25.8753255208333 33.2885044642857  C 25.4033203125 33.7628348214286  24.8337673611111 34  24.1666666666667 34  L 12.0833333333333 34  C 11.4162326388889 34  10.8466796875 33.7628348214286  10.3746744791667 33.2885044642857  C 9.90266927083333 32.8141741071429  9.66666666666667 32.2418154761905  9.66666666666667 31.5714285714286  L 9.66666666666667 26.1071428571429  C 9.66666666666667 25.9806547619048  9.63834635416667 25.8446800595238  9.58170572916667 25.69921875  C 9.52506510416667 25.5537574404762  9.43695746527778 25.4051339285714  9.3173828125 25.2533482142857  C 9.19780815972222 25.1015625  9.08452690972222 24.9592633928571  8.9775390625 24.8264508928571  C 8.87055121527778 24.6936383928571  8.72894965277778 24.5418526785714  8.552734375 24.37109375  C 8.37651909722222 24.2003348214286  8.2412109375 24.0706845238095  8.14680989583333 23.9821428571429  C 8.05240885416667 23.8936011904762  7.91710069444445 23.7734375  7.74088541666667 23.6216517857143  C 7.56467013888889 23.4698660714286  7.45768229166667 23.3813244047619  7.419921875 23.3560267857143  C 6.48849826388889 22.5338541666667  5.67664930555556 21.9014136904762  4.984375 21.4587053571429  C 4.72005208333333 21.2942708333333  4.32986111111111 21.0855654761905  3.81380208333333 20.8325892857143  C 3.29774305555556 20.5796130952381  2.84461805555556 20.3456101190476  2.45442708333333 20.1305803571429  C 2.06423611111111 19.9155505952381  1.66775173611111 19.659412202381  1.26497395833333 19.3621651785714  C 0.862196180555556 19.0649181547619  0.550672743055556 18.7170758928571  0.330403645833333 18.3186383928571  C 0.110134548611111 17.9202008928571  0 17.4806547619048  0 17  C 0 15.4188988095238  0.421657986111111 14.1129092261905  1.26497395833333 13.08203125  C 2.10828993055556 12.0511532738095  3.29774305555556 11.5357142857143  4.83333333333333 11.5357142857143  C 5.68923611111111 11.5357142857143  6.49479166666667 11.6748511904762  7.25 11.953125  L 7.25 4.85714285714286  C 7.25 3.54166666666667  7.72829861111111 2.40327380952381  8.68489583333333 1.44196428571429  C 9.64149305555556 0.480654761904766  10.7680121527778 0  12.064453125 0  C 13.3860677083333 0  14.5251736111111 0.47749255952381  15.4817708333333 1.43247767857143  C 16.4383680555556 2.38746279761904  16.9166666666667 3.52901785714286  16.9166666666667 4.85714285714286  L 16.9166666666667 8.06361607142857  C 17.6970486111111 8.11421130952381  18.4459635416667 8.34821428571429  19.1634114583333 8.765625  C 19.427734375 8.72767857142857  19.6983506944444 8.70870535714286  19.9752604166667 8.70870535714286  C 21.2465277777778 8.70870535714286  22.3667534722222 9.08816964285714  23.3359375 9.84709821428571  C 25.0855034722222 9.8344494047619  26.4669053819444 10.3720238095238  27.4801432291667 11.4598214285714  Z " fill-rule="nonzero" fill="#ffffff" stroke="none" fill-opacity="0.996078431372549" transform="matrix(1 0 0 1 120 179 )" />
  </g>
</svg>