<?xml version="1.0" encoding="utf-8"?>
<svg version="1.1" xmlns:xlink="http://www.w3.org/1999/xlink" width="59px" height="59px" xmlns="http://www.w3.org/2000/svg">
  <g transform="matrix(1 0 0 1 -105 -166 )">
    <path d="M 134.5 166  C 151.02 166  164 178.98  164 195.5  C 164 212.02  151.02 225  134.5 225  C 117.98 225  105 212.02  105 195.5  C 105 178.98  117.98 166  134.5 166  Z " fill-rule="nonzero" fill="#caf982" stroke="none" />
    <path d="M 134.5 166.5  C 150.74 166.5  163.5 179.26  163.5 195.5  C 163.5 211.74  150.74 224.5  134.5 224.5  C 118.26 224.5  105.5 211.74  105.5 195.5  C 105.5 179.26  118.26 166.5  134.5 166.5  Z " stroke-width="1" stroke="#caf982" fill="none" />
  </g>
</svg>