<?xml version="1.0" encoding="utf-8"?>
<svg version="1.1" xmlns:xlink="http://www.w3.org/1999/xlink" width="342px" height="65px" xmlns="http://www.w3.org/2000/svg">
  <defs>
    <filter x="479px" y="588px" width="342px" height="65px" filterUnits="userSpaceOnUse" id="filter63">
      <feOffset dx="3" dy="5" in="SourceAlpha" result="shadowOffsetInner" />
      <feGaussianBlur stdDeviation="2.5" in="shadowOffsetInner" result="shadowGaussian" />
      <feComposite in2="shadowGaussian" operator="atop" in="SourceAlpha" result="shadowComposite" />
      <feColorMatrix type="matrix" values="0 0 0 0 0  0 0 0 0 0  0 0 0 0 0  0 0 0 0.349019607843137 0  " in="shadowComposite" />
    </filter>
    <g id="widget64">
      <path d="M 481.5 591  A 2.5 2.5 0 0 1 484 588.5 L 810 588.5  A 2.5 2.5 0 0 1 812.5 591 L 812.5 640  A 2.5 2.5 0 0 1 810 642.5 L 484 642.5  A 2.5 2.5 0 0 1 481.5 640 L 481.5 591  Z " fill-rule="nonzero" fill="#ffffff" stroke="none" fill-opacity="0" />
      <path d="M 481.5 591  A 2.5 2.5 0 0 1 484 588.5 L 810 588.5  A 2.5 2.5 0 0 1 812.5 591 L 812.5 640  A 2.5 2.5 0 0 1 810 642.5 L 484 642.5  A 2.5 2.5 0 0 1 481.5 640 L 481.5 591  Z " stroke-width="1" stroke="#797979" fill="none" />
    </g>
  </defs>
  <g transform="matrix(1 0 0 1 -479 -588 )">
    <use xlink:href="#widget64" filter="url(#filter63)" />
    <use xlink:href="#widget64" />
  </g>
</svg>