<?xml version="1.0" encoding="utf-8"?>
<svg version="1.1" xmlns:xlink="http://www.w3.org/1999/xlink" width="67px" height="36px" xmlns="http://www.w3.org/2000/svg">
  <defs>
    <mask fill="white" id="clip133">
      <path d="M 0 26  L 0 10  C 0 4.40000000000001  4.40000000000001 0  10 0  L 57 0  C 62.6 0  67 4.40000000000001  67 10  L 67 26  C 67 31.6  62.6 36  57 36  L 38.1818181818169 36  L 10 36  C 4.40000000000001 36  0 31.6  0 26  Z " fill-rule="evenodd" />
    </mask>
  </defs>
  <g transform="matrix(1 0 0 1 -216 -96 )">
    <path d="M 0 26  L 0 10  C 0 4.40000000000001  4.40000000000001 0  10 0  L 57 0  C 62.6 0  67 4.40000000000001  67 10  L 67 26  C 67 31.6  62.6 36  57 36  L 38.1818181818169 36  L 10 36  C 4.40000000000001 36  0 31.6  0 26  Z " fill-rule="nonzero" fill="#5552f2" stroke="none" transform="matrix(1 0 0 1 216 96 )" />
    <path d="M 0 26  L 0 10  C 0 4.40000000000001  4.40000000000001 0  10 0  L 57 0  C 62.6 0  67 4.40000000000001  67 10  L 67 26  C 67 31.6  62.6 36  57 36  L 38.1818181818169 36  L 10 36  C 4.40000000000001 36  0 31.6  0 26  Z " stroke-width="2" stroke="#95f204" fill="none" transform="matrix(1 0 0 1 216 96 )" mask="url(#clip133)" />
  </g>
</svg>