<?xml version="1.0" encoding="utf-8"?>
<svg version="1.1" xmlns:xlink="http://www.w3.org/1999/xlink" width="342px" height="62px" xmlns="http://www.w3.org/2000/svg">
  <defs>
    <filter x="472px" y="273px" width="342px" height="62px" filterUnits="userSpaceOnUse" id="filter103">
      <feOffset dx="3" dy="5" in="SourceAlpha" result="shadowOffsetInner" />
      <feGaussianBlur stdDeviation="2.5" in="shadowOffsetInner" result="shadowGaussian" />
      <feComposite in2="shadowGaussian" operator="atop" in="SourceAlpha" result="shadowComposite" />
      <feColorMatrix type="matrix" values="0 0 0 0 0  0 0 0 0 0  0 0 0 0 0  0 0 0 0.349019607843137 0  " in="shadowComposite" />
    </filter>
    <g id="widget104">
      <path d="M 474.5 276  A 2.5 2.5 0 0 1 477 273.5 L 803 273.5  A 2.5 2.5 0 0 1 805.5 276 L 805.5 322  A 2.5 2.5 0 0 1 803 324.5 L 477 324.5  A 2.5 2.5 0 0 1 474.5 322 L 474.5 276  Z " fill-rule="nonzero" fill="#ffffff" stroke="none" fill-opacity="0" />
      <path d="M 474.5 276  A 2.5 2.5 0 0 1 477 273.5 L 803 273.5  A 2.5 2.5 0 0 1 805.5 276 L 805.5 322  A 2.5 2.5 0 0 1 803 324.5 L 477 324.5  A 2.5 2.5 0 0 1 474.5 322 L 474.5 276  Z " stroke-width="1" stroke="#797979" fill="none" />
    </g>
  </defs>
  <g transform="matrix(1 0 0 1 -472 -273 )">
    <use xlink:href="#widget104" filter="url(#filter103)" />
    <use xlink:href="#widget104" />
  </g>
</svg>