<?xml version="1.0" encoding="utf-8"?>
<svg version="1.1" xmlns:xlink="http://www.w3.org/1999/xlink" width="19px" height="28px" xmlns="http://www.w3.org/2000/svg">
  <defs>
    <mask fill="white" id="clip141">
      <path d="M 0 28  L 0 19.8850574712635  L 0 15.9459459459474  L 0 0  L 19 0  L 19 15.9459459459474  L 19 28  L 8.71264367816013 28  L 0 28  Z " fill-rule="evenodd" />
    </mask>
  </defs>
  <g transform="matrix(1 0 0 1 -506 -450 )">
    <path d="M 0 28  L 0 19.8850574712635  L 0 15.9459459459474  L 0 0  L 19 0  L 19 15.9459459459474  L 19 28  L 8.71264367816013 28  L 0 28  Z " fill-rule="nonzero" fill="#ffffff" stroke="none" transform="matrix(1 0 0 1 506 450 )" />
    <path d="M 0 28  L 0 19.8850574712635  L 0 15.9459459459474  L 0 0  L 19 0  L 19 15.9459459459474  L 19 28  L 8.71264367816013 28  L 0 28  Z " stroke-width="2" stroke="#ffffff" fill="none" stroke-opacity="0.647058823529412" transform="matrix(1 0 0 1 506 450 )" mask="url(#clip141)" />
  </g>
</svg>