<?xml version="1.0" encoding="utf-8"?>
<svg version="1.1" xmlns:xlink="http://www.w3.org/1999/xlink" width="332px" height="84px" xmlns="http://www.w3.org/2000/svg">
  <defs>
    <filter x="1068px" y="582px" width="332px" height="84px" filterUnits="userSpaceOnUse" id="filter120">
      <feOffset dx="3" dy="5" in="SourceAlpha" result="shadowOffsetInner" />
      <feGaussianBlur stdDeviation="2.5" in="shadowOffsetInner" result="shadowGaussian" />
      <feComposite in2="shadowGaussian" operator="atop" in="SourceAlpha" result="shadowComposite" />
      <feColorMatrix type="matrix" values="0 0 0 0 0  0 0 0 0 0  0 0 0 0 0  0 0 0 0.349019607843137 0  " in="shadowComposite" />
    </filter>
    <g id="widget121">
      <path d="M 1070.5 585  A 2.5 2.5 0 0 1 1073 582.5 L 1389 582.5  A 2.5 2.5 0 0 1 1391.5 585 L 1391.5 653  A 2.5 2.5 0 0 1 1389 655.5 L 1073 655.5  A 2.5 2.5 0 0 1 1070.5 653 L 1070.5 585  Z " fill-rule="nonzero" fill="#ffffff" stroke="none" fill-opacity="0" />
      <path d="M 1070.5 585  A 2.5 2.5 0 0 1 1073 582.5 L 1389 582.5  A 2.5 2.5 0 0 1 1391.5 585 L 1391.5 653  A 2.5 2.5 0 0 1 1389 655.5 L 1073 655.5  A 2.5 2.5 0 0 1 1070.5 653 L 1070.5 585  Z " stroke-width="1" stroke="#797979" fill="none" />
    </g>
  </defs>
  <g transform="matrix(1 0 0 1 -1068 -582 )">
    <use xlink:href="#widget121" filter="url(#filter120)" />
    <use xlink:href="#widget121" />
  </g>
</svg>