<?xml version="1.0" encoding="utf-8"?>
<svg version="1.1" xmlns:xlink="http://www.w3.org/1999/xlink" width="108px" height="145px" xmlns="http://www.w3.org/2000/svg">
  <defs>
    <filter x="862px" y="142px" width="108px" height="145px" filterUnits="userSpaceOnUse" id="filter49">
      <feOffset dx="3" dy="5" in="SourceAlpha" result="shadowOffsetInner" />
      <feGaussianBlur stdDeviation="2.5" in="shadowOffsetInner" result="shadowGaussian" />
      <feComposite in2="shadowGaussian" operator="atop" in="SourceAlpha" result="shadowComposite" />
      <feColorMatrix type="matrix" values="0 0 0 0 0  0 0 0 0 0  0 0 0 0 0  0 0 0 0.349019607843137 0  " in="shadowComposite" />
    </filter>
    <g id="widget50">
      <path d="M 864.5 145  A 2.5 2.5 0 0 1 867 142.5 L 959 142.5  A 2.5 2.5 0 0 1 961.5 145 L 961.5 274  A 2.5 2.5 0 0 1 959 276.5 L 867 276.5  A 2.5 2.5 0 0 1 864.5 274 L 864.5 145  Z " fill-rule="nonzero" fill="#ffffff" stroke="none" fill-opacity="0" />
      <path d="M 864.5 145  A 2.5 2.5 0 0 1 867 142.5 L 959 142.5  A 2.5 2.5 0 0 1 961.5 145 L 961.5 274  A 2.5 2.5 0 0 1 959 276.5 L 867 276.5  A 2.5 2.5 0 0 1 864.5 274 L 864.5 145  Z " stroke-width="1" stroke="#797979" fill="none" />
    </g>
  </defs>
  <g transform="matrix(1 0 0 1 -862 -142 )">
    <use xlink:href="#widget50" filter="url(#filter49)" />
    <use xlink:href="#widget50" />
  </g>
</svg>