<?xml version="1.0" encoding="utf-8"?>
<svg version="1.1" xmlns:xlink="http://www.w3.org/1999/xlink" width="180px" height="120px" xmlns="http://www.w3.org/2000/svg">
  <defs>
    <filter x="241px" y="89px" width="180px" height="120px" filterUnits="userSpaceOnUse" id="filter65">
      <feOffset dx="3" dy="5" in="SourceAlpha" result="shadowOffsetInner" />
      <feGaussianBlur stdDeviation="2.5" in="shadowOffsetInner" result="shadowGaussian" />
      <feComposite in2="shadowGaussian" operator="atop" in="SourceAlpha" result="shadowComposite" />
      <feColorMatrix type="matrix" values="0 0 0 0 0  0 0 0 0 0  0 0 0 0 0  0 0 0 0.349019607843137 0  " in="shadowComposite" />
    </filter>
    <g id="widget66">
      <path d="M 243.5 92  A 2.5 2.5 0 0 1 246 89.5 L 410 89.5  A 2.5 2.5 0 0 1 412.5 92 L 412.5 196  A 2.5 2.5 0 0 1 410 198.5 L 246 198.5  A 2.5 2.5 0 0 1 243.5 196 L 243.5 92  Z " fill-rule="nonzero" fill="#ffffff" stroke="none" fill-opacity="0" />
      <path d="M 243.5 92  A 2.5 2.5 0 0 1 246 89.5 L 410 89.5  A 2.5 2.5 0 0 1 412.5 92 L 412.5 196  A 2.5 2.5 0 0 1 410 198.5 L 246 198.5  A 2.5 2.5 0 0 1 243.5 196 L 243.5 92  Z " stroke-width="1" stroke="#797979" fill="none" />
    </g>
  </defs>
  <g transform="matrix(1 0 0 1 -241 -89 )">
    <use xlink:href="#widget66" filter="url(#filter65)" />
    <use xlink:href="#widget66" />
  </g>
</svg>