<?xml version="1.0" encoding="utf-8"?>
<svg version="1.1" xmlns:xlink="http://www.w3.org/1999/xlink" width="120px" height="120px" xmlns="http://www.w3.org/2000/svg">
  <defs>
    <filter x="1218px" y="480px" width="120px" height="120px" filterUnits="userSpaceOnUse" id="filter69">
      <feOffset dx="3" dy="5" in="SourceAlpha" result="shadowOffsetInner" />
      <feGaussianBlur stdDeviation="2.5" in="shadowOffsetInner" result="shadowGaussian" />
      <feComposite in2="shadowGaussian" operator="atop" in="SourceAlpha" result="shadowComposite" />
      <feColorMatrix type="matrix" values="0 0 0 0 0  0 0 0 0 0  0 0 0 0 0  0 0 0 0.349019607843137 0  " in="shadowComposite" />
    </filter>
    <g id="widget70">
      <path d="M 1220.5 483  A 2.5 2.5 0 0 1 1223 480.5 L 1327 480.5  A 2.5 2.5 0 0 1 1329.5 483 L 1329.5 587  A 2.5 2.5 0 0 1 1327 589.5 L 1223 589.5  A 2.5 2.5 0 0 1 1220.5 587 L 1220.5 483  Z " fill-rule="nonzero" fill="#ffffff" stroke="none" fill-opacity="0" />
      <path d="M 1220.5 483  A 2.5 2.5 0 0 1 1223 480.5 L 1327 480.5  A 2.5 2.5 0 0 1 1329.5 483 L 1329.5 587  A 2.5 2.5 0 0 1 1327 589.5 L 1223 589.5  A 2.5 2.5 0 0 1 1220.5 587 L 1220.5 483  Z " stroke-width="1" stroke="#797979" fill="none" />
    </g>
  </defs>
  <g transform="matrix(1 0 0 1 -1218 -480 )">
    <use xlink:href="#widget70" filter="url(#filter69)" />
    <use xlink:href="#widget70" />
  </g>
</svg>