<?xml version="1.0" encoding="utf-8"?>
<svg version="1.1" xmlns:xlink="http://www.w3.org/1999/xlink" width="19px" height="31px" xmlns="http://www.w3.org/2000/svg">
  <g transform="matrix(1 0 0 1 -98 -235 )">
    <path d="M 10.8977864583333 29.268359375  C 11.2853732638889 28.8889322916667  11.4791666666667 28.4328125  11.4791666666667 27.9  C 11.4791666666667 27.3671875  11.2853732638889 26.9110677083333  10.8977864583333 26.531640625  C 10.5101996527778 26.1522135416667  10.0442708333333 25.9625  9.5 25.9625  C 8.95572916666667 25.9625  8.48980034722222 26.1522135416667  8.10221354166667 26.531640625  C 7.71462673611111 26.9110677083333  7.52083333333333 27.3671875  7.52083333333333 27.9  C 7.52083333333333 28.4328125  7.71462673611111 28.8889322916667  8.10221354166667 29.268359375  C 8.48980034722222 29.6477864583333  8.95572916666667 29.8375  9.5 29.8375  C 10.0442708333333 29.8375  10.5101996527778 29.6477864583333  10.8977864583333 29.268359375  Z M 16.3899739583333 24.569921875  C 16.5466579861111 24.4165364583333  16.625 24.2348958333333  16.625 24.025  L 16.625 6.975  C 16.625 6.76510416666666  16.5466579861111 6.58346354166666  16.3899739583333 6.430078125  C 16.2332899305556 6.27669270833333  16.0477430555556 6.2  15.8333333333333 6.2  L 3.16666666666667 6.2  C 2.95225694444444 6.2  2.76671006944444 6.27669270833333  2.61002604166667 6.430078125  C 2.45334201388889 6.58346354166666  2.375 6.76510416666666  2.375 6.975  L 2.375 24.025  C 2.375 24.2348958333333  2.45334201388889 24.4165364583333  2.61002604166667 24.569921875  C 2.76671006944444 24.7233072916667  2.95225694444444 24.8  3.16666666666667 24.8  L 15.8333333333333 24.8  C 16.0477430555556 24.8  16.2332899305556 24.7233072916667  16.3899739583333 24.569921875  Z M 11.4791666666667 3.875  C 11.7430555555556 3.875  11.875 3.74583333333333  11.875 3.4875  C 11.875 3.22916666666667  11.7430555555556 3.1  11.4791666666667 3.1  L 7.52083333333333 3.1  C 7.25694444444444 3.1  7.125 3.22916666666667  7.125 3.4875  C 7.125 3.74583333333333  7.25694444444444 3.875  7.52083333333333 3.875  L 11.4791666666667 3.875  Z M 18.0598958333333 0.920312499999999  C 18.6866319444444 1.53385416666667  19 2.26041666666667  19 3.1  L 19 27.9  C 19 28.7395833333333  18.6866319444444 29.4661458333333  18.0598958333333 30.0796875  C 17.4331597222222 30.6932291666667  16.6909722222222 31  15.8333333333333 31  L 3.16666666666667 31  C 2.30902777777778 31  1.56684027777778 30.6932291666667  0.940104166666667 30.0796875  C 0.313368055555556 29.4661458333333  0 28.7395833333333  0 27.9  L 0 3.1  C 0 2.26041666666667  0.313368055555556 1.53385416666667  0.940104166666667 0.920312499999999  C 1.56684027777778 0.30677083333333  2.30902777777778 0  3.16666666666667 0  L 15.8333333333333 0  C 16.6909722222222 0  17.4331597222222 0.30677083333333  18.0598958333333 0.920312499999999  Z " fill-rule="nonzero" fill="#666666" stroke="none" transform="matrix(1 0 0 1 98 235 )" />
  </g>
</svg>