<?xml version="1.0" encoding="utf-8"?>
<svg version="1.1" xmlns:xlink="http://www.w3.org/1999/xlink" width="28px" height="28px" xmlns="http://www.w3.org/2000/svg">
  <g transform="matrix(1 0 0 1 -486 -39 )">
    <path d="M 500 39  C 507.84 39  514 45.16  514 53  C 514 60.84  507.84 67  500 67  C 492.16 67  486 60.84  486 53  C 486 45.16  492.16 39  500 39  Z " fill-rule="nonzero" fill="#02a7f0" stroke="none" />
    <path d="M 500 39.5  C 507.56 39.5  513.5 45.44  513.5 53  C 513.5 60.56  507.56 66.5  500 66.5  C 492.44 66.5  486.5 60.56  486.5 53  C 486.5 45.44  492.44 39.5  500 39.5  Z " stroke-width="1" stroke="#8b8888" fill="none" />
  </g>
</svg>