<?xml version="1.0" encoding="utf-8"?>
<svg version="1.1" xmlns:xlink="http://www.w3.org/1999/xlink" width="29px" height="28px" xmlns="http://www.w3.org/2000/svg">
  <g transform="matrix(1 0 0 1 -486 -347 )">
    <path d="M 500.5 347  C 508.62 347  515 353.16  515 361  C 515 368.84  508.62 375  500.5 375  C 492.38 375  486 368.84  486 361  C 486 353.16  492.38 347  500.5 347  Z " fill-rule="nonzero" fill="#02a7f0" stroke="none" />
    <path d="M 500.5 347.5  C 508.34 347.5  514.5 353.44  514.5 361  C 514.5 368.56  508.34 374.5  500.5 374.5  C 492.66 374.5  486.5 368.56  486.5 361  C 486.5 353.44  492.66 347.5  500.5 347.5  Z " stroke-width="1" stroke="#8b8888" fill="none" />
  </g>
</svg>