<?xml version="1.0" encoding="utf-8"?>
<svg version="1.1" xmlns:xlink="http://www.w3.org/1999/xlink" width="28px" height="28px" xmlns="http://www.w3.org/2000/svg">
  <defs>
    <mask fill="white" id="clip5">
      <path d="M 0 14  C 0 7.42078905372956  4.3380665400034 2.02468716382368  10.3666064042737 0.459287546018899  C 11.5218691147895 0.159306481578419  12.7392109462704 0  14 0  C 21.84 0  28 6.16  28 14  C 28 19.4221659668028  25.0535830768303 24.0407636818321  20.6427493756508 26.3737929999281  C 18.6758852289649 27.4141295960919  16.4178340331972 28  14 28  C 6.16 28  0 21.84  0 14  Z " fill-rule="evenodd" />
    </mask>
  </defs>
  <g transform="matrix(1 0 0 1 -63 -33 )">
    <path d="M 0 14  C 0 7.42078905372956  4.3380665400034 2.02468716382368  10.3666064042737 0.459287546018899  C 11.5218691147895 0.159306481578419  12.7392109462704 0  14 0  C 21.84 0  28 6.16  28 14  C 28 19.4221659668028  25.0535830768303 24.0407636818321  20.6427493756508 26.3737929999281  C 18.6758852289649 27.4141295960919  16.4178340331972 28  14 28  C 6.16 28  0 21.84  0 14  Z " fill-rule="nonzero" fill="#02a7f0" stroke="none" transform="matrix(1 0 0 1 63 33 )" />
    <path d="M 0 14  C 0 7.42078905372956  4.3380665400034 2.02468716382368  10.3666064042737 0.459287546018899  C 11.5218691147895 0.159306481578419  12.7392109462704 0  14 0  C 21.84 0  28 6.16  28 14  C 28 19.4221659668028  25.0535830768303 24.0407636818321  20.6427493756508 26.3737929999281  C 18.6758852289649 27.4141295960919  16.4178340331972 28  14 28  C 6.16 28  0 21.84  0 14  Z " stroke-width="2" stroke="#8b8888" fill="none" transform="matrix(1 0 0 1 63 33 )" mask="url(#clip5)" />
  </g>
</svg>