<?xml version="1.0" encoding="utf-8"?>
<svg version="1.1" xmlns:xlink="http://www.w3.org/1999/xlink" width="35px" height="35px" xmlns="http://www.w3.org/2000/svg">
  <g transform="matrix(1 0 0 1 -168 -524 )">
    <path d="M 34.2518775274408 28.4084344309648  C 34.7506258424803 28.9341421143847  35 29.5474677450414  35 30.2484113229347  C 35 30.9628345850183  34.7506258424803 31.5694203735798  34.2518775274408 32.0681686886193  L 32.0883882149047 34.2518775274408  C 31.5626805314847 34.7506258424803  30.949354900828 35  30.2484113229347 35  C 29.5339880608511 35  28.9274022722896 34.7506258424803  28.4286539572501 34.2518775274408  L 21.0889659156557 26.8919699595609  C 20.576737916426 26.4067013287117  20.3206239168111 25.8001155401502  20.3206239168111 25.0722125938764  C 20.3206239168111 24.3577893317928  20.6104371269016 23.7107644906605  21.1900635470826 23.1311380704795  L 16.0138648180243 17.9549393414211  L 13.4662045060659 20.5025996533795  C 13.2774889274023 20.6913152320431  13.0483342961679 20.7856730213749  12.7787406123628 20.7856730213749  C 12.5091469285577 20.7856730213749  12.2799922973233 20.6913152320431  12.0912767186597 20.5025996533795  C 12.1182360870402 20.5295590217601  12.2024841132293 20.6104371269016  12.344020797227 20.7452339688042  C 12.4855574812247 20.8800308107067  12.5698055074138 20.9676487579434  12.5967648757943 21.0080878105142  C 12.6237242441749 21.0485268630849  12.6911226651261 21.1260350471789  12.7989601386482 21.2406123627961  C 12.9067976121702 21.3551896784132  12.9741960331215 21.4461775466975  13.001155401502 21.5135759676488  C 13.0281147698825 21.5809743886  13.0685538224533 21.6719622568843  13.1224725592143 21.7865395725014  C 13.1763912959754 21.9011168881186  13.2134604274986 22.0123242826882  13.2336799537839 22.1201617562103  C 13.2538994800693 22.2279992297323  13.264009243212 22.3493163874446  13.264009243212 22.4841132293472  C 13.264009243212 22.9963412285769  13.0752936645484 23.4546504910456  12.6978625072213 23.8590410167533  C 12.6574234546505 23.8994800693241  12.5462160600809 24.0207972270364  12.3642403235124 24.2229924898902  C 12.182264586944 24.4251877527441  12.0542075871365 24.5633545156942  11.9800693240901 24.6374927787406  C 11.9059310610437 24.711631041787  11.7812439822838 24.8228384363566  11.6060080878105 24.9711149624495  C 11.4307721933372 25.1193914885423  11.2824956672444 25.2238590410168  11.1611785095321 25.2845176198729  C 11.0398613518198 25.3451761987291  10.8915848257269 25.4058347775852  10.7163489312536 25.4664933564414  C 10.5411130367803 25.5271519352975  10.365877142307 25.5574812247256  10.1906412478336 25.5574812247256  C 9.65145388022338 25.5574812247256  9.19314461775467 25.368765646062  8.8157134604275 24.9913344887348  L 0.566146735990757 16.7417677642981  C 0.188715578663586 16.3643366069709  0 15.9060273445022  0 15.366839976892  C 0 15.1916040824186  0.0303292894280763 15.0163681879453  0.0909878682842288 14.841132293472  C 0.151646447140381 14.6658963989986  0.212305025996534 14.5176198729058  0.272963604852686 14.3963027151935  C 0.333622183708839 14.2749855574812  0.438089736183324 14.1267090313884  0.586366262276141 13.9514731369151  C 0.734642788368958 13.7762372424417  0.845850182938571 13.6515501636819  0.91998844598498 13.5774119006355  C 0.994126709031388 13.5032736375891  1.13229347198151 13.3752166377816  1.33448873483536 13.1932409012132  C 1.5366839976892 13.0112651646447  1.6580011554015 12.9000577700751  1.69844020797227 12.8596187175043  C 2.10283073367995 12.4821875601772  2.56113999614866 12.2934719815136  3.07336799537839 12.2934719815136  C 3.20816483728096 12.2934719815136  3.32948199499326 12.3035817446563  3.43731946851531 12.3238012709417  C 3.54515694203736 12.344020797227  3.65636433660697 12.3810899287502  3.77094165222415 12.4350086655113  C 3.88551896784133 12.4889274022723  3.97650683612555 12.5293664548431  4.04390525707683 12.5563258232236  C 4.11130367802811 12.5832851916041  4.20229154631234 12.6506836125554  4.31686886192952 12.7585210860774  C 4.4314461775467 12.8663585595995  4.50895436164067 12.9337569805507  4.54939341421144 12.9607163489313  C 4.58983246678221 12.9876757173118  4.67745041401887 13.0719237435009  4.81224725592143 13.2134604274986  C 4.94704409782399 13.3549971114962  5.02792220296553 13.4392451376853  5.05488157134604 13.4662045060659  C 4.86616599268246 13.2774889274023  4.77180820335066 13.0483342961679  4.77180820335066 12.7787406123628  C 4.77180820335066 12.5091469285577  4.86616599268246 12.2799922973233  5.05488157134604 12.0912767186597  L 12.0912767186597 5.05488157134604  C 12.2799922973233 4.86616599268245  12.5091469285577 4.77180820335066  12.7787406123628 4.77180820335066  C 13.0483342961679 4.77180820335066  13.2774889274023 4.86616599268245  13.4662045060659 5.05488157134604  C 13.4392451376853 5.02792220296553  13.3549971114962 4.94704409782399  13.2134604274986 4.81224725592143  C 13.0719237435009 4.67745041401887  12.9876757173118 4.58983246678221  12.9607163489313 4.54939341421144  C 12.9337569805507 4.50895436164067  12.8663585595995 4.43144617754669  12.7585210860774 4.31686886192952  C 12.6506836125554 4.20229154631234  12.5832851916041 4.11130367802811  12.5563258232236 4.04390525707683  C 12.5293664548431 3.97650683612555  12.4889274022723 3.88551896784132  12.4350086655113 3.77094165222415  C 12.3810899287502 3.65636433660697  12.344020797227 3.54515694203736  12.3238012709417 3.43731946851531  C 12.3035817446563 3.32948199499326  12.2934719815136 3.20816483728095  12.2934719815136 3.07336799537839  C 12.2934719815136 2.56113999614866  12.4821875601772 2.10283073367995  12.8596187175043 1.69844020797227  C 12.9000577700751 1.6580011554015  13.0112651646447 1.5366839976892  13.1932409012132 1.33448873483536  C 13.3752166377816 1.13229347198151  13.5032736375891 0.994126709031384  13.5774119006355 0.919988445984981  C 13.6515501636819 0.84585018293857  13.7762372424417 0.734642788368955  13.9514731369151 0.586366262276141  C 14.1267090313884 0.438089736183319  14.2749855574812 0.33362218370884  14.3963027151935 0.272963604852688  C 14.5176198729058 0.212305025996532  14.6658963989987 0.15164644714038  14.841132293472 0.090987868284228  C 15.0163681879453 0.030329289428076  15.1916040824186 0  15.366839976892 0  C 15.9060273445022 0  16.3643366069709 0.188715578663584  16.7417677642981 0.566146735990758  L 24.9913344887348 8.8157134604275  C 25.368765646062 9.19314461775467  25.5574812247256 9.65145388022338  25.5574812247256 10.1906412478336  C 25.5574812247256 10.3658771423069  25.5271519352975 10.5411130367803  25.4664933564414 10.7163489312536  C 25.4058347775852 10.8915848257269  25.3451761987291 11.0398613518198  25.2845176198729 11.1611785095321  C 25.2238590410168 11.2824956672444  25.1193914885423 11.4307721933372  24.9711149624495 11.6060080878105  C 24.8228384363566 11.7812439822838  24.711631041787 11.9059310610437  24.6374927787406 11.9800693240901  C 24.5633545156942 12.0542075871365  24.4251877527441 12.182264586944  24.2229924898902 12.3642403235124  C 24.0207972270364 12.5462160600809  23.8994800693241 12.6574234546505  23.8590410167533 12.6978625072213  C 23.4546504910456 13.0752936645484  22.9963412285769 13.264009243212  22.4841132293472 13.264009243212  C 22.3493163874446 13.264009243212  22.2279992297323 13.2538994800693  22.1201617562103 13.2336799537839  C 22.0123242826882 13.2134604274986  21.9011168881186 13.1763912959753  21.7865395725014 13.1224725592143  C 21.6719622568843 13.0685538224533  21.5809743886 13.0281147698825  21.5135759676488 13.001155401502  C 21.4461775466975 12.9741960331215  21.3551896784133 12.9067976121702  21.2406123627961 12.7989601386482  C 21.1260350471789 12.6911226651261  21.0485268630849 12.6237242441748  21.0080878105142 12.5967648757943  C 20.9676487579434 12.5698055074138  20.8800308107067 12.4855574812247  20.7452339688042 12.344020797227  C 20.6104371269016 12.2024841132293  20.5295590217601 12.1182360870402  20.5025996533796 12.0912767186597  C 20.6913152320431 12.2799922973233  20.7856730213749 12.5091469285577  20.7856730213749 12.7787406123628  C 20.7856730213749 13.0483342961679  20.6913152320431 13.2774889274023  20.5025996533796 13.4662045060659  L 17.9549393414211 16.0138648180243  L 23.1311380704795 21.1900635470826  C 23.7107644906605 20.6104371269016  24.3577893317928 20.3206239168111  25.0722125938764 20.3206239168111  C 25.7731561717697 20.3206239168111  26.3864818024263 20.5699980743308  26.9121894858463 21.0687463893703  L 34.2518775274408 28.4084344309648  Z " fill-rule="nonzero" fill="#ffffff" stroke="none" transform="matrix(1 0 0 1 168 524 )" />
  </g>
</svg>