<?xml version="1.0" encoding="utf-8"?>
<svg version="1.1" xmlns:xlink="http://www.w3.org/1999/xlink" width="40px" height="34px" xmlns="http://www.w3.org/2000/svg">
  <g transform="matrix(1 0 0 1 -22 -103 )">
    <path d="M 25.7142857142857 26.62890625  C 25.9077380952381 26.62890625  26.0788690476191 26.5551215277778  26.2276785714286 26.4075520833333  L 29.4866071428571 23.17578125  C 29.6354166666667 23.0282118055556  29.7098214285714 22.8585069444444  29.7098214285714 22.6666666666667  C 29.7098214285714 22.4748263888889  29.6354166666667 22.3051215277778  29.4866071428571 22.1575520833333  L 24.2857142857143 17  L 29.4866071428571 11.8424479166667  C 29.6354166666667 11.6948784722222  29.7098214285714 11.5251736111111  29.7098214285714 11.3333333333333  C 29.7098214285714 11.1414930555556  29.6354166666667 10.9717881944444  29.4866071428571 10.82421875  L 26.2276785714286 7.59244791666667  C 26.0788690476191 7.44487847222222  25.9077380952381 7.37109375  25.7142857142857 7.37109375  C 25.5208333333333 7.37109375  25.3497023809524 7.44487847222222  25.2008928571429 7.59244791666667  L 20 12.75  L 14.7991071428571 7.59244791666667  C 14.6502976190476 7.44487847222222  14.4791666666667 7.37109375  14.2857142857143 7.37109375  C 14.0922619047619 7.37109375  13.921130952381 7.44487847222222  13.7723214285714 7.59244791666667  L 10.5133928571429 10.82421875  C 10.3645833333333 10.9717881944444  10.2901785714286 11.1414930555556  10.2901785714286 11.3333333333333  C 10.2901785714286 11.5251736111111  10.3645833333333 11.6948784722222  10.5133928571429 11.8424479166667  L 15.7142857142857 17  L 10.5133928571429 22.1575520833333  C 10.3645833333333 22.3051215277778  10.2901785714286 22.4748263888889  10.2901785714286 22.6666666666667  C 10.2901785714286 22.8585069444444  10.3645833333333 23.0282118055556  10.5133928571429 23.17578125  L 13.7723214285714 26.4075520833333  C 13.921130952381 26.5551215277778  14.0922619047619 26.62890625  14.2857142857143 26.62890625  C 14.4791666666667 26.62890625  14.6502976190476 26.5551215277778  14.7991071428571 26.4075520833333  L 20 21.25  L 25.2008928571429 26.4075520833333  C 25.3497023809524 26.5551215277778  25.5208333333333 26.62890625  25.7142857142857 26.62890625  Z M 38.9508928571429 1.04036458333333  C 39.6502976190476 1.73394097222222  40 2.56770833333333  40 3.54166666666667  L 40 30.4583333333333  C 40 31.4322916666667  39.6502976190476 32.2660590277778  38.9508928571429 32.9596354166667  C 38.2514880952381 33.6532118055556  37.4107142857143 34  36.4285714285714 34  L 3.57142857142857 34  C 2.58928571428571 34  1.7485119047619 33.6532118055556  1.04910714285714 32.9596354166667  C 0.349702380952381 32.2660590277778  0 31.4322916666667  0 30.4583333333333  L 0 3.54166666666667  C 0 2.56770833333333  0.349702380952381 1.73394097222222  1.04910714285714 1.04036458333333  C 1.7485119047619 0.346788194444441  2.58928571428571 0  3.57142857142857 0  L 36.4285714285714 0  C 37.4107142857143 0  38.2514880952381 0.346788194444441  38.9508928571429 1.04036458333333  Z " fill-rule="nonzero" fill="#ffffff" stroke="none" transform="matrix(1 0 0 1 22 103 )" />
  </g>
</svg>