<?xml version="1.0" encoding="utf-8"?>
<svg version="1.1" xmlns:xlink="http://www.w3.org/1999/xlink" width="367px" height="118px" xmlns="http://www.w3.org/2000/svg">
  <defs>
    <filter x="463px" y="232px" width="367px" height="118px" filterUnits="userSpaceOnUse" id="filter47">
      <feOffset dx="3" dy="5" in="SourceAlpha" result="shadowOffsetInner" />
      <feGaussianBlur stdDeviation="2.5" in="shadowOffsetInner" result="shadowGaussian" />
      <feComposite in2="shadowGaussian" operator="atop" in="SourceAlpha" result="shadowComposite" />
      <feColorMatrix type="matrix" values="0 0 0 0 0  0 0 0 0 0  0 0 0 0 0  0 0 0 0.349019607843137 0  " in="shadowComposite" />
    </filter>
    <g id="widget48">
      <path d="M 465.5 235  A 2.5 2.5 0 0 1 468 232.5 L 819 232.5  A 2.5 2.5 0 0 1 821.5 235 L 821.5 337  A 2.5 2.5 0 0 1 819 339.5 L 468 339.5  A 2.5 2.5 0 0 1 465.5 337 L 465.5 235  Z " fill-rule="nonzero" fill="#ffffff" stroke="none" fill-opacity="0" />
      <path d="M 465.5 235  A 2.5 2.5 0 0 1 468 232.5 L 819 232.5  A 2.5 2.5 0 0 1 821.5 235 L 821.5 337  A 2.5 2.5 0 0 1 819 339.5 L 468 339.5  A 2.5 2.5 0 0 1 465.5 337 L 465.5 235  Z " stroke-width="1" stroke="#797979" fill="none" />
    </g>
  </defs>
  <g transform="matrix(1 0 0 1 -463 -232 )">
    <use xlink:href="#widget48" filter="url(#filter47)" />
    <use xlink:href="#widget48" />
  </g>
</svg>