<?xml version="1.0" encoding="utf-8"?>
<svg version="1.1" xmlns:xlink="http://www.w3.org/1999/xlink" width="342px" height="83px" xmlns="http://www.w3.org/2000/svg">
  <defs>
    <filter x="470px" y="309px" width="342px" height="83px" filterUnits="userSpaceOnUse" id="filter84">
      <feOffset dx="3" dy="5" in="SourceAlpha" result="shadowOffsetInner" />
      <feGaussianBlur stdDeviation="2.5" in="shadowOffsetInner" result="shadowGaussian" />
      <feComposite in2="shadowGaussian" operator="atop" in="SourceAlpha" result="shadowComposite" />
      <feColorMatrix type="matrix" values="0 0 0 0 0  0 0 0 0 0  0 0 0 0 0  0 0 0 0.349019607843137 0  " in="shadowComposite" />
    </filter>
    <g id="widget85">
      <path d="M 472.5 312  A 2.5 2.5 0 0 1 475 309.5 L 801 309.5  A 2.5 2.5 0 0 1 803.5 312 L 803.5 379  A 2.5 2.5 0 0 1 801 381.5 L 475 381.5  A 2.5 2.5 0 0 1 472.5 379 L 472.5 312  Z " fill-rule="nonzero" fill="#ffffff" stroke="none" fill-opacity="0" />
      <path d="M 472.5 312  A 2.5 2.5 0 0 1 475 309.5 L 801 309.5  A 2.5 2.5 0 0 1 803.5 312 L 803.5 379  A 2.5 2.5 0 0 1 801 381.5 L 475 381.5  A 2.5 2.5 0 0 1 472.5 379 L 472.5 312  Z " stroke-width="1" stroke="#797979" fill="none" />
    </g>
  </defs>
  <g transform="matrix(1 0 0 1 -470 -309 )">
    <use xlink:href="#widget85" filter="url(#filter84)" />
    <use xlink:href="#widget85" />
  </g>
</svg>