<?xml version="1.0" encoding="utf-8"?>
<svg version="1.1" xmlns:xlink="http://www.w3.org/1999/xlink" width="28px" height="28px" xmlns="http://www.w3.org/2000/svg">
  <defs>
    <mask fill="white" id="clip115">
      <path d="M 0 14  C 0 8.88532424104352  2.62171090845345 4.48566054802882  6.62123650732087 2.04490513899469  C 8.75268589306802 0.744267023637974  11.2748519887652 0  14 0  C 21.8399999999999 0  28 6.16000000000003  28 14  C 28 21.84  21.8399999999999 28  14 28  C 6.16000000000008 28  0 21.84  0 14  Z " fill-rule="evenodd" />
    </mask>
  </defs>
  <g transform="matrix(1 0 0 1 -1078 -232 )">
    <path d="M 0 14  C 0 8.88532424104352  2.62171090845345 4.48566054802882  6.62123650732087 2.04490513899469  C 8.75268589306802 0.744267023637974  11.2748519887652 0  14 0  C 21.8399999999999 0  28 6.16000000000003  28 14  C 28 21.84  21.8399999999999 28  14 28  C 6.16000000000008 28  0 21.84  0 14  Z " fill-rule="nonzero" fill="#02a7f0" stroke="none" transform="matrix(1 0 0 1 1078 232 )" />
    <path d="M 0 14  C 0 8.88532424104352  2.62171090845345 4.48566054802882  6.62123650732087 2.04490513899469  C 8.75268589306802 0.744267023637974  11.2748519887652 0  14 0  C 21.8399999999999 0  28 6.16000000000003  28 14  C 28 21.84  21.8399999999999 28  14 28  C 6.16000000000008 28  0 21.84  0 14  Z " stroke-width="2" stroke="#8b8888" fill="none" transform="matrix(1 0 0 1 1078 232 )" mask="url(#clip115)" />
  </g>
</svg>