<?xml version="1.0" encoding="utf-8"?>
<svg version="1.1" xmlns:xlink="http://www.w3.org/1999/xlink" width="342px" height="117px" xmlns="http://www.w3.org/2000/svg">
  <defs>
    <filter x="1067px" y="390px" width="342px" height="117px" filterUnits="userSpaceOnUse" id="filter116">
      <feOffset dx="3" dy="5" in="SourceAlpha" result="shadowOffsetInner" />
      <feGaussianBlur stdDeviation="2.5" in="shadowOffsetInner" result="shadowGaussian" />
      <feComposite in2="shadowGaussian" operator="atop" in="SourceAlpha" result="shadowComposite" />
      <feColorMatrix type="matrix" values="0 0 0 0 0  0 0 0 0 0  0 0 0 0 0  0 0 0 0.349019607843137 0  " in="shadowComposite" />
    </filter>
    <g id="widget117">
      <path d="M 1069.5 393  A 2.5 2.5 0 0 1 1072 390.5 L 1398 390.5  A 2.5 2.5 0 0 1 1400.5 393 L 1400.5 494  A 2.5 2.5 0 0 1 1398 496.5 L 1072 496.5  A 2.5 2.5 0 0 1 1069.5 494 L 1069.5 393  Z " fill-rule="nonzero" fill="#ffffff" stroke="none" fill-opacity="0" />
      <path d="M 1069.5 393  A 2.5 2.5 0 0 1 1072 390.5 L 1398 390.5  A 2.5 2.5 0 0 1 1400.5 393 L 1400.5 494  A 2.5 2.5 0 0 1 1398 496.5 L 1072 496.5  A 2.5 2.5 0 0 1 1069.5 494 L 1069.5 393  Z " stroke-width="1" stroke="#797979" fill="none" />
    </g>
  </defs>
  <g transform="matrix(1 0 0 1 -1067 -390 )">
    <use xlink:href="#widget117" filter="url(#filter116)" />
    <use xlink:href="#widget117" />
  </g>
</svg>