<?xml version="1.0" encoding="utf-8"?>
<svg version="1.1" xmlns:xlink="http://www.w3.org/1999/xlink" width="17px" height="20px" xmlns="http://www.w3.org/2000/svg">
  <g transform="matrix(1 0 0 1 -333 -255 )">
    <path d="M 16.887109375 14.4596354166667  C 16.9623697916667 15.1150173611111  17 15.8116319444444  17 16.5494791666667  C 17 17.4956597222222  16.7233072916667 18.3072916666667  16.169921875 18.984375  C 15.6165364583333 19.6614583333333  14.9502604166667 20  14.17109375 20  L 2.82890625 20  C 2.04973958333333 20  1.38346354166667 19.6614583333333  0.830078125 18.984375  C 0.276692708333333 18.3072916666667  0 17.4956597222222  0 16.5494791666667  C 0 15.8116319444444  0.0376302083333334 15.1150173611111  0.112890625 14.4596354166667  C 0.188151041666667 13.8042534722222  0.327604166666667 13.14453125  0.53125 12.48046875  C 0.734895833333334 11.81640625  0.993880208333333 11.2478298611111  1.308203125 10.7747395833333  C 1.62252604166667 10.3016493055556  2.038671875 9.91536458333333  2.556640625 9.61588541666667  C 3.074609375 9.31640625  3.67005208333333 9.16666666666667  4.34296875 9.16666666666667  C 5.50286458333333 10.2777777777778  6.88854166666667 10.8333333333333  8.5 10.8333333333333  C 10.1114583333333 10.8333333333333  11.4971354166667 10.2777777777778  12.65703125 9.16666666666667  C 13.3299479166667 9.16666666666667  13.925390625 9.31640625  14.443359375 9.61588541666667  C 14.961328125 9.91536458333333  15.3774739583333 10.3016493055556  15.691796875 10.7747395833333  C 16.0061197916667 11.2478298611111  16.2651041666667 11.81640625  16.46875 12.48046875  C 16.6723958333333 13.14453125  16.8118489583333 13.8042534722222  16.887109375 14.4596354166667  Z M 12.105859375 1.46484375  C 13.101953125 2.44140625  13.6 3.61979166666667  13.6 5  C 13.6 6.38020833333333  13.101953125 7.55859375  12.105859375 8.53515625  C 11.109765625 9.51171875  9.9078125 10  8.5 10  C 7.0921875 10  5.890234375 9.51171875  4.894140625 8.53515625  C 3.898046875 7.55859375  3.4 6.38020833333333  3.4 5  C 3.4 3.61979166666667  3.898046875 2.44140625  4.894140625 1.46484375  C 5.890234375 0.48828125  7.0921875 0  8.5 0  C 9.9078125 0  11.109765625 0.48828125  12.105859375 1.46484375  Z " fill-rule="nonzero" fill="#aaaaaa" stroke="none" transform="matrix(1 0 0 1 333 255 )" />
  </g>
</svg>