<?xml version="1.0" encoding="utf-8"?>
<svg version="1.1" xmlns:xlink="http://www.w3.org/1999/xlink" width="17px" height="22px" xmlns="http://www.w3.org/2000/svg">
  <g transform="matrix(1 0 0 1 -334 -386 )">
    <path d="M 4.72222222222222 11  L 15.5833333333333 11  C 15.9768518518519 11  16.3113425925926 11.1336805555556  16.5868055555556 11.4010416666667  C 16.8622685185185 11.6684027777778  17 11.9930555555556  17 12.375  L 17 20.625  C 17 21.0069444444444  16.8622685185185 21.3315972222222  16.5868055555556 21.5989583333333  C 16.3113425925926 21.8663194444444  15.9768518518519 22  15.5833333333333 22  L 1.41666666666667 22  C 1.02314814814815 22  0.688657407407408 21.8663194444444  0.413194444444444 21.5989583333333  C 0.137731481481481 21.3315972222222  0 21.0069444444444  0 20.625  L 0 12.375  C 0 11.9930555555556  0.137731481481481 11.6684027777778  0.413194444444444 11.4010416666667  C 0.688657407407408 11.1336805555556  1.02314814814815 11  1.41666666666667 11  L 1.88888888888889 11  L 1.88888888888889 6.41666666666667  C 1.88888888888889 4.65017361111111  2.5357349537037 3.13910590277778  3.82942708333333 1.88346354166667  C 5.12311921296296 0.627821180555557  6.67997685185185 0  8.5 0  C 10.3200231481481 0  11.876880787037 0.627821180555557  13.1705729166667 1.88346354166667  C 14.4642650462963 3.13910590277778  15.1111111111111 4.65017361111111  15.1111111111111 6.41666666666667  C 15.1111111111111 6.66493055555555  15.017650462963 6.87977430555555  14.8307291666667 7.06119791666667  C 14.6438078703704 7.24262152777778  14.4224537037037 7.33333333333333  14.1666666666667 7.33333333333333  L 13.2222222222222 7.33333333333333  C 12.9664351851852 7.33333333333333  12.7450810185185 7.24262152777778  12.5581597222222 7.06119791666667  C 12.3712384259259 6.87977430555555  12.2777777777778 6.66493055555555  12.2777777777778 6.41666666666667  C 12.2777777777778 5.40451388888889  11.9088541666667 4.54036458333333  11.1710069444444 3.82421875  C 10.4331597222222 3.10807291666667  9.54282407407408 2.75  8.5 2.75  C 7.45717592592593 2.75  6.56684027777778 3.10807291666667  5.82899305555556 3.82421875  C 5.09114583333333 4.54036458333333  4.72222222222222 5.40451388888889  4.72222222222222 6.41666666666667  L 4.72222222222222 11  Z " fill-rule="nonzero" fill="#aaaaaa" stroke="none" transform="matrix(1 0 0 1 334 386 )" />
  </g>
</svg>