<?xml version="1.0" encoding="utf-8"?>
<svg version="1.1" xmlns:xlink="http://www.w3.org/1999/xlink" width="367px" height="126px" xmlns="http://www.w3.org/2000/svg">
  <defs>
    <filter x="463px" y="376px" width="367px" height="126px" filterUnits="userSpaceOnUse" id="filter45">
      <feOffset dx="3" dy="5" in="SourceAlpha" result="shadowOffsetInner" />
      <feGaussianBlur stdDeviation="2.5" in="shadowOffsetInner" result="shadowGaussian" />
      <feComposite in2="shadowGaussian" operator="atop" in="SourceAlpha" result="shadowComposite" />
      <feColorMatrix type="matrix" values="0 0 0 0 0  0 0 0 0 0  0 0 0 0 0  0 0 0 0.349019607843137 0  " in="shadowComposite" />
    </filter>
    <g id="widget46">
      <path d="M 465.5 379  A 2.5 2.5 0 0 1 468 376.5 L 819 376.5  A 2.5 2.5 0 0 1 821.5 379 L 821.5 489  A 2.5 2.5 0 0 1 819 491.5 L 468 491.5  A 2.5 2.5 0 0 1 465.5 489 L 465.5 379  Z " fill-rule="nonzero" fill="#ffffff" stroke="none" fill-opacity="0" />
      <path d="M 465.5 379  A 2.5 2.5 0 0 1 468 376.5 L 819 376.5  A 2.5 2.5 0 0 1 821.5 379 L 821.5 489  A 2.5 2.5 0 0 1 819 491.5 L 468 491.5  A 2.5 2.5 0 0 1 465.5 489 L 465.5 379  Z " stroke-width="1" stroke="#797979" fill="none" />
    </g>
  </defs>
  <g transform="matrix(1 0 0 1 -463 -376 )">
    <use xlink:href="#widget46" filter="url(#filter45)" />
    <use xlink:href="#widget46" />
  </g>
</svg>