<?xml version="1.0" encoding="utf-8"?>
<svg version="1.1" xmlns:xlink="http://www.w3.org/1999/xlink" width="362px" height="41px" xmlns="http://www.w3.org/2000/svg">
  <defs>
    <mask fill="white" id="clip142">
      <path d="M 0 31  L 0 10  C 0 4.39999999999998  4.39999999999998 0  10 0  L 352 0  C 357.6 0  362 4.39999999999998  362 10  L 362 31  C 362 36.6  357.6 41  352 41  L 159.059701492538 41  L 10 41  C 4.39999999999998 41  0 36.6  0 31  Z " fill-rule="evenodd" />
    </mask>
  </defs>
  <g transform="matrix(1 0 0 1 -409 -266 )">
    <path d="M 0 31  L 0 10  C 0 4.39999999999998  4.39999999999998 0  10 0  L 352 0  C 357.6 0  362 4.39999999999998  362 10  L 362 31  C 362 36.6  357.6 41  352 41  L 159.059701492538 41  L 10 41  C 4.39999999999998 41  0 36.6  0 31  Z " fill-rule="nonzero" fill="#ffffff" stroke="none" transform="matrix(1 0 0 1 409 266 )" />
    <path d="M 0 31  L 0 10  C 0 4.39999999999998  4.39999999999998 0  10 0  L 352 0  C 357.6 0  362 4.39999999999998  362 10  L 362 31  C 362 36.6  357.6 41  352 41  L 159.059701492538 41  L 10 41  C 4.39999999999998 41  0 36.6  0 31  Z " stroke-width="2" stroke="#797979" fill="none" transform="matrix(1 0 0 1 409 266 )" mask="url(#clip142)" />
  </g>
</svg>