<?xml version="1.0" encoding="utf-8"?>
<svg version="1.1" xmlns:xlink="http://www.w3.org/1999/xlink" width="17px" height="19px" xmlns="http://www.w3.org/2000/svg">
  <g transform="matrix(1 0 0 1 -10 -173 )">
    <path d="M 2.14959490740741 0.4638671875  C 2.39554398148148 0.773111979166666  2.51851851851852 1.14626736111111  2.51851851851852 1.58333333333333  C 2.51851851851852 2.17708333333333  2.30864197530864 2.63064236111111  2 2.94401041666667  L 2 18.6041666666667  C 1.88888888888889 18.7113715277778  1.85773533950617 18.8041449652778  1.79542824074074 18.8824869791667  C 1.73312114197531 18.9608289930556  1.65933641975309 19  1.57407407407407 19  L 0.944444444444444 19  C 0.859182098765432 19  0.78539737654321 18.9608289930556  0.723090277777778 18.8824869791667  C 0.660783179012346 18.8041449652778  0.62962962962963 18.7113715277778  0.62962962962963 18.6041666666667  L 0.62962962962963 2.94401041666667  C 0.209876543209877 2.63064236111111  0 2.17708333333333  0 1.58333333333333  C 0 1.14626736111111  0.122974537037037 0.773111979166666  0.368923611111111 0.4638671875  C 0.614872685185185 0.154622395833334  0.911651234567901 0  1.25925925925926 0  C 1.60686728395062 0  1.90364583333333 0.154622395833334  2.14959490740741 0.4638671875  Z M 16.8130787037037 1.818359375  C 16.9376929012346 1.97504340277778  17 2.16059027777778  17 2.375  L 17 11.8131510416667  C 17 12.0193142361111  16.9590084876543 12.1780598958333  16.877025462963 12.2893880208333  C 16.7950424382716 12.4007161458333  16.6655092592593 12.5141059027778  16.4884259259259 12.6295572916667  C 15.0783179012346 13.5861545138889  13.8682484567901 14.064453125  12.8582175925926 14.064453125  C 12.4581404320988 14.064453125  12.0531442901235 13.9737413194444  11.6432291666667 13.7923177083333  C 11.2333140432099 13.6108940972222  10.8775077160494 13.4129774305556  10.5758101851852 13.1985677083333  C 10.274112654321 12.9841579861111  9.89535108024691 12.7862413194444  9.43952546296296 12.6048177083333  C 8.98369984567901 12.4233940972222  8.51639660493827 12.3326822916667  8.03761574074074 12.3326822916667  C 6.77835648148148 12.3326822916667  5.25675154320988 12.9346788194444  3.47280092592593 14.138671875  C 3.36130401234568 14.212890625  3.25308641975309 14.25  3.14814814814815 14.25  C 2.97762345679012 14.25  2.83005401234568 14.1716579861111  2.70543981481481 14.0149739583333  C 2.58082561728395 13.8582899305556  2.51851851851852 13.6727430555556  2.51851851851852 13.4583333333333  L 2.51851851851852 4.27994791666667  C 2.51851851851852 4.01605902777778  2.6201774691358 3.78927951388889  2.82349537037037 3.599609375  C 2.96122685185185 3.48415798611111  3.22029320987654 3.30685763888889  3.60069444444444 3.06770833333333  C 5.14853395061728 2.078125  6.52912808641975 1.58333333333333  7.74247685185185 1.58333333333333  C 8.44425154320988 1.58333333333333  9.10011574074074 1.70290798611111  9.71006944444444 1.94205729166667  C 10.3200231481481 2.18120659722222  11.0381944444444 2.54405381944444  11.8645833333333 3.03059895833333  C 12.1138117283951 3.18728298611111  12.4023919753086 3.265625  12.7303240740741 3.265625  C 13.0844907407407 3.265625  13.4698109567901 3.17903645833333  13.8862847222222 3.005859375  C 14.3027584876543 2.83268229166667  14.6634837962963 2.63888888888889  14.9684606481481 2.42447916666667  C 15.2734375 2.21006944444444  15.5620177469136 2.01627604166667  15.8342013888889 1.84309895833333  C 16.1063850308642 1.669921875  16.2851080246914 1.58333333333333  16.3703703703704 1.58333333333333  C 16.5408950617284 1.58333333333333  16.6884645061728 1.66167534722222  16.8130787037037 1.818359375  Z " fill-rule="nonzero" fill="#797979" stroke="none" transform="matrix(1 0 0 1 10 173 )" />
  </g>
</svg>