<?xml version="1.0" encoding="utf-8"?>
<svg version="1.1" xmlns:xlink="http://www.w3.org/1999/xlink" width="522px" height="41px" xmlns="http://www.w3.org/2000/svg">
  <defs>
    <mask fill="white" id="clip138">
      <path d="M 0 31  L 0 10  C 0 4.39999999999998  4.39999999999998 0  10 0  L 512 0  C 517.6 0  522 4.39999999999998  522 10  L 522 31  C 522 36.6  517.6 41  512 41  L 262.426229508197 41  L 10 41  C 4.39999999999998 41  0 36.6  0 31  Z " fill-rule="evenodd" />
    </mask>
  </defs>
  <g transform="matrix(1 0 0 1 -372 -285 )">
    <path d="M 0 31  L 0 10  C 0 4.39999999999998  4.39999999999998 0  10 0  L 512 0  C 517.6 0  522 4.39999999999998  522 10  L 522 31  C 522 36.6  517.6 41  512 41  L 262.426229508197 41  L 10 41  C 4.39999999999998 41  0 36.6  0 31  Z " fill-rule="nonzero" fill="#ffffff" stroke="none" transform="matrix(1 0 0 1 372 285 )" />
    <path d="M 0 31  L 0 10  C 0 4.39999999999998  4.39999999999998 0  10 0  L 512 0  C 517.6 0  522 4.39999999999998  522 10  L 522 31  C 522 36.6  517.6 41  512 41  L 262.426229508197 41  L 10 41  C 4.39999999999998 41  0 36.6  0 31  Z " stroke-width="2" stroke="#797979" fill="none" transform="matrix(1 0 0 1 372 285 )" mask="url(#clip138)" />
  </g>
</svg>