<?xml version="1.0" encoding="utf-8"?>
<svg version="1.1" xmlns:xlink="http://www.w3.org/1999/xlink" width="175px" height="85px" xmlns="http://www.w3.org/2000/svg">
  <defs>
    <filter x="1122px" y="219px" width="175px" height="85px" filterUnits="userSpaceOnUse" id="filter131">
      <feOffset dx="3" dy="5" in="SourceAlpha" result="shadowOffsetInner" />
      <feGaussianBlur stdDeviation="2.5" in="shadowOffsetInner" result="shadowGaussian" />
      <feComposite in2="shadowGaussian" operator="atop" in="SourceAlpha" result="shadowComposite" />
      <feColorMatrix type="matrix" values="0 0 0 0 0  0 0 0 0 0  0 0 0 0 0  0 0 0 0.349019607843137 0  " in="shadowComposite" />
    </filter>
    <g id="widget132">
      <path d="M 1124.5 222  A 2.5 2.5 0 0 1 1127 219.5 L 1286 219.5  A 2.5 2.5 0 0 1 1288.5 222 L 1288.5 291  A 2.5 2.5 0 0 1 1286 293.5 L 1127 293.5  A 2.5 2.5 0 0 1 1124.5 291 L 1124.5 222  Z " fill-rule="nonzero" fill="#ffffff" stroke="none" fill-opacity="0" />
      <path d="M 1124.5 222  A 2.5 2.5 0 0 1 1127 219.5 L 1286 219.5  A 2.5 2.5 0 0 1 1288.5 222 L 1288.5 291  A 2.5 2.5 0 0 1 1286 293.5 L 1127 293.5  A 2.5 2.5 0 0 1 1124.5 291 L 1124.5 222  Z " stroke-width="1" stroke="#797979" fill="none" />
    </g>
  </defs>
  <g transform="matrix(1 0 0 1 -1122 -219 )">
    <use xlink:href="#widget132" filter="url(#filter131)" />
    <use xlink:href="#widget132" />
  </g>
</svg>