<?xml version="1.0" encoding="utf-8"?>
<svg version="1.1" xmlns:xlink="http://www.w3.org/1999/xlink" width="27px" height="19px" xmlns="http://www.w3.org/2000/svg">
  <g transform="matrix(1 0 0 1 -341 -42 )">
    <path d="M 26.5122580645161 2.62289562289562  C 26.8374193548387 2.92143658810325  27 3.28395061728395  27 3.71043771043771  C 27 4.13692480359147  26.8374193548387 4.49943883277216  26.5122580645161 4.7979797979798  L 13.9006451612903 16.3771043771044  L 11.5316129032258 18.5521885521886  C 11.2064516129032 18.8507295173962  10.8116129032258 19  10.3470967741935 19  C 9.88258064516129 19  9.48774193548387 18.8507295173962  9.16258064516129 18.5521885521886  L 6.79354838709677 16.3771043771044  L 0.487741935483871 10.5875420875421  C 0.16258064516129 10.2890011223345  0 9.92648709315376  0 9.5  C 0 9.07351290684624  0.16258064516129 8.71099887766554  0.487741935483871 8.41245791245791  L 2.85677419354839 6.23737373737374  C 3.18193548387097 5.9388327721661  3.57677419354839 5.78956228956229  4.04129032258065 5.78956228956229  C 4.5058064516129 5.78956228956229  4.90064516129032 5.9388327721661  5.2258064516129 6.23737373737374  L 10.3470967741935 10.9553872053872  L 21.7741935483871 0.447811447811448  C 22.0993548387097 0.149270482603815  22.4941935483871 0  22.9587096774194 0  C 23.4232258064516 0  23.818064516129 0.149270482603815  24.1432258064516 0.447811447811448  L 26.5122580645161 2.62289562289562  Z " fill-rule="nonzero" fill="#e8f5eb" stroke="none" transform="matrix(1 0 0 1 341 42 )" />
  </g>
</svg>