<?xml version="1.0" encoding="utf-8"?>
<svg version="1.1" xmlns:xlink="http://www.w3.org/1999/xlink" width="48px" height="48px" xmlns="http://www.w3.org/2000/svg">
  <g transform="matrix(1 0 0 1 -170 -202 )">
    <path d="M 6.97392849557522 30.7529161061947  C 4.46253069026549 24.4259766371681  5.69837139823009 17.4544226548673  9.80531723893805 12.4359207079646  L 9.7655940700885 15.2408130265487  L 15.4129482647788 15.3599847929204  L 15.6270156488496 2.91570443893806  L 3.18499511787611 2.70384603185841  L 3.06803232849558 8.35120022654867  L 5.81558163823009 8.38871724318584  C 0.128737036460176 14.9919200750443  -1.64126933522124 24.3600163582301  1.72185576212389 32.8383073316814  C 5.40288146123894 42.120530340531  14.2898614258407 47.9599129953982  23.9381757621239 47.9599129953982  C 25.5668302046018 47.9599129953982  27.2175744169911 47.7921889316814  28.8683186293805 47.4501308219469  L 27.7141140276106 41.9197224679646  C 18.9861126116814 43.7382020431858  10.2620658860177 39.044210680354  6.97402340814159 30.7528070697345  Z M 46.2756403539823 15.1590074336283  C 41.9722593982301 4.3146817699115  30.5563115044248 -1.82921203539823  19.1334711504425 0.549816637168141  L 20.2854724247788 6.08022499115044  C 29.013473840708 4.2617454159292  37.7375205663717 8.95573677876106  41.0255630442478 17.2426207433628  C 43.5391641769912 23.5740798584071  42.3011201415929 30.5524133097345  38.1897676460177 35.570350300885  L 38.225077380531 32.7411648849557  L 32.5755198584071 32.6352356814159  L 32.3835252955752 45.0772562123894  L 44.8255458265487 45.2692507752212  L 44.9314750300885 39.621896580531  L 42.2038121628319 39.5865868460177  C 47.875402959292 32.987903660177  49.6386298619469 23.6311064920354  46.2754482690265 15.1590300318584  Z " fill-rule="nonzero" fill="#d7d7d7" stroke="none" transform="matrix(1 0 0 1 170 202 )" />
  </g>
</svg>