<?xml version="1.0" encoding="utf-8"?>
<svg version="1.1" xmlns:xlink="http://www.w3.org/1999/xlink" width="342px" height="84px" xmlns="http://www.w3.org/2000/svg">
  <defs>
    <filter x="475px" y="207px" width="342px" height="84px" filterUnits="userSpaceOnUse" id="filter19">
      <feOffset dx="3" dy="5" in="SourceAlpha" result="shadowOffsetInner" />
      <feGaussianBlur stdDeviation="2.5" in="shadowOffsetInner" result="shadowGaussian" />
      <feComposite in2="shadowGaussian" operator="atop" in="SourceAlpha" result="shadowComposite" />
      <feColorMatrix type="matrix" values="0 0 0 0 0  0 0 0 0 0  0 0 0 0 0  0 0 0 0.349019607843137 0  " in="shadowComposite" />
    </filter>
    <g id="widget20">
      <path d="M 477.5 210  A 2.5 2.5 0 0 1 480 207.5 L 806 207.5  A 2.5 2.5 0 0 1 808.5 210 L 808.5 278  A 2.5 2.5 0 0 1 806 280.5 L 480 280.5  A 2.5 2.5 0 0 1 477.5 278 L 477.5 210  Z " fill-rule="nonzero" fill="#ffffff" stroke="none" fill-opacity="0" />
      <path d="M 477.5 210  A 2.5 2.5 0 0 1 480 207.5 L 806 207.5  A 2.5 2.5 0 0 1 808.5 210 L 808.5 278  A 2.5 2.5 0 0 1 806 280.5 L 480 280.5  A 2.5 2.5 0 0 1 477.5 278 L 477.5 210  Z " stroke-width="1" stroke="#797979" fill="none" />
    </g>
  </defs>
  <g transform="matrix(1 0 0 1 -475 -207 )">
    <use xlink:href="#widget20" filter="url(#filter19)" />
    <use xlink:href="#widget20" />
  </g>
</svg>