<?xml version="1.0" encoding="utf-8"?>
<svg version="1.1" xmlns:xlink="http://www.w3.org/1999/xlink" width="345px" height="70px" xmlns="http://www.w3.org/2000/svg">
  <defs>
    <filter x="472px" y="93px" width="345px" height="70px" filterUnits="userSpaceOnUse" id="filter53">
      <feOffset dx="3" dy="5" in="SourceAlpha" result="shadowOffsetInner" />
      <feGaussianBlur stdDeviation="2.5" in="shadowOffsetInner" result="shadowGaussian" />
      <feComposite in2="shadowGaussian" operator="atop" in="SourceAlpha" result="shadowComposite" />
      <feColorMatrix type="matrix" values="0 0 0 0 0  0 0 0 0 0  0 0 0 0 0  0 0 0 0.349019607843137 0  " in="shadowComposite" />
    </filter>
    <g id="widget54">
      <path d="M 474.5 96  A 2.5 2.5 0 0 1 477 93.5 L 806 93.5  A 2.5 2.5 0 0 1 808.5 96 L 808.5 150  A 2.5 2.5 0 0 1 806 152.5 L 477 152.5  A 2.5 2.5 0 0 1 474.5 150 L 474.5 96  Z " fill-rule="nonzero" fill="#ffffff" stroke="none" fill-opacity="0" />
      <path d="M 474.5 96  A 2.5 2.5 0 0 1 477 93.5 L 806 93.5  A 2.5 2.5 0 0 1 808.5 96 L 808.5 150  A 2.5 2.5 0 0 1 806 152.5 L 477 152.5  A 2.5 2.5 0 0 1 474.5 150 L 474.5 96  Z " stroke-width="1" stroke="#797979" fill="none" />
    </g>
  </defs>
  <g transform="matrix(1 0 0 1 -472 -93 )">
    <use xlink:href="#widget54" filter="url(#filter53)" />
    <use xlink:href="#widget54" />
  </g>
</svg>