<?xml version="1.0" encoding="utf-8"?>
<svg version="1.1" xmlns:xlink="http://www.w3.org/1999/xlink" width="342px" height="76px" xmlns="http://www.w3.org/2000/svg">
  <defs>
    <filter x="475px" y="232px" width="342px" height="76px" filterUnits="userSpaceOnUse" id="filter55">
      <feOffset dx="3" dy="5" in="SourceAlpha" result="shadowOffsetInner" />
      <feGaussianBlur stdDeviation="2.5" in="shadowOffsetInner" result="shadowGaussian" />
      <feComposite in2="shadowGaussian" operator="atop" in="SourceAlpha" result="shadowComposite" />
      <feColorMatrix type="matrix" values="0 0 0 0 0  0 0 0 0 0  0 0 0 0 0  0 0 0 0.349019607843137 0  " in="shadowComposite" />
    </filter>
    <g id="widget56">
      <path d="M 477.5 235  A 2.5 2.5 0 0 1 480 232.5 L 806 232.5  A 2.5 2.5 0 0 1 808.5 235 L 808.5 295  A 2.5 2.5 0 0 1 806 297.5 L 480 297.5  A 2.5 2.5 0 0 1 477.5 295 L 477.5 235  Z " fill-rule="nonzero" fill="#ffffff" stroke="none" fill-opacity="0" />
      <path d="M 477.5 235  A 2.5 2.5 0 0 1 480 232.5 L 806 232.5  A 2.5 2.5 0 0 1 808.5 235 L 808.5 295  A 2.5 2.5 0 0 1 806 297.5 L 480 297.5  A 2.5 2.5 0 0 1 477.5 295 L 477.5 235  Z " stroke-width="1" stroke="#797979" fill="none" />
    </g>
  </defs>
  <g transform="matrix(1 0 0 1 -475 -232 )">
    <use xlink:href="#widget56" filter="url(#filter55)" />
    <use xlink:href="#widget56" />
  </g>
</svg>