<?xml version="1.0" encoding="utf-8"?>
<svg version="1.1" xmlns:xlink="http://www.w3.org/1999/xlink" width="28px" height="26px" xmlns="http://www.w3.org/2000/svg">
  <g transform="matrix(1 0 0 1 -486 -246 )">
    <path d="M 500 246  C 507.84 246  514 251.72  514 259  C 514 266.28  507.84 272  500 272  C 492.16 272  486 266.28  486 259  C 486 251.72  492.16 246  500 246  Z " fill-rule="nonzero" fill="#02a7f0" stroke="none" />
    <path d="M 500 246.5  C 507.56 246.5  513.5 252  513.5 259  C 513.5 266  507.56 271.5  500 271.5  C 492.44 271.5  486.5 266  486.5 259  C 486.5 252  492.44 246.5  500 246.5  Z " stroke-width="1" stroke="#8b8888" fill="none" />
  </g>
</svg>