<?xml version="1.0" encoding="utf-8"?>
<svg version="1.1" xmlns:xlink="http://www.w3.org/1999/xlink" width="39px" height="39px" xmlns="http://www.w3.org/2000/svg">
  <g transform="matrix(1 0 0 1 -172 -637 )">
    <path d="M 38.0808080808081 29.1515151515151  C 38.6936026936027 29.7643097643098  39 30.5084175084175  39 31.3838383838384  C 39 32.2592592592593  38.6936026936027 33.003367003367  38.0808080808081 33.6161616161616  L 33.6161616161616 38.0808080808081  C 33.003367003367 38.6936026936027  32.2592592592593 39  31.3838383838384 39  C 30.5084175084175 39  29.7643097643098 38.6936026936027  29.1515151515152 38.0808080808081  L 19.5 28.4292929292929  L 9.84848484848485 38.0808080808081  C 9.23569023569024 38.6936026936027  8.49158249158249 39  7.61616161616162 39  C 6.74074074074074 39  5.996632996633 38.6936026936027  5.38383838383838 38.0808080808081  L 0.919191919191919 33.6161616161616  C 0.306397306397307 33.003367003367  0 32.2592592592593  0 31.3838383838384  C 0 30.5084175084175  0.306397306397307 29.7643097643098  0.919191919191919 29.1515151515151  L 10.5707070707071 19.5  L 0.919191919191919 9.84848484848485  C 0.306397306397307 9.23569023569023  0 8.49158249158249  0 7.61616161616162  C 0 6.74074074074074  0.306397306397307 5.99663299663299  0.919191919191919 5.38383838383839  L 5.38383838383838 0.919191919191919  C 5.996632996633 0.306397306397305  6.74074074074074 0  7.61616161616162 0  C 8.49158249158249 0  9.23569023569024 0.306397306397305  9.84848484848485 0.919191919191919  L 19.5 10.5707070707071  L 29.1515151515152 0.919191919191919  C 29.7643097643098 0.306397306397305  30.5084175084175 0  31.3838383838384 0  C 32.2592592592593 0  33.003367003367 0.306397306397305  33.6161616161616 0.919191919191919  L 38.0808080808081 5.38383838383839  C 38.6936026936027 5.99663299663299  39 6.74074074074074  39 7.61616161616162  C 39 8.49158249158249  38.6936026936027 9.23569023569023  38.0808080808081 9.84848484848485  L 28.4292929292929 19.5  L 38.0808080808081 29.1515151515151  Z " fill-rule="nonzero" fill="#ffffff" stroke="none" transform="matrix(1 0 0 1 172 637 )" />
  </g>
</svg>