<?xml version="1.0" encoding="utf-8"?>
<svg version="1.1" xmlns:xlink="http://www.w3.org/1999/xlink" width="28px" height="28px" xmlns="http://www.w3.org/2000/svg">
  <defs>
    <mask fill="white" id="clip102">
      <path d="M 0 14  C 0 6.15999999999997  6.16000000000003 0  14 0  C 14.8465034117786 0  15.6734213272155 0.0718134865859383  16.4751145662174 0.209801279664703  C 23.0985852555959 1.35001183096597  28 7.00663117760973  28 14  C 28 21.84  21.84 28  14 28  C 6.16000000000003 28  0 21.84  0 14  Z " fill-rule="evenodd" />
    </mask>
  </defs>
  <g transform="matrix(1 0 0 1 -495 -631 )">
    <path d="M 0 14  C 0 6.15999999999997  6.16000000000003 0  14 0  C 14.8465034117786 0  15.6734213272155 0.0718134865859383  16.4751145662174 0.209801279664703  C 23.0985852555959 1.35001183096597  28 7.00663117760973  28 14  C 28 21.84  21.84 28  14 28  C 6.16000000000003 28  0 21.84  0 14  Z " fill-rule="nonzero" fill="#02a7f0" stroke="none" transform="matrix(1 0 0 1 495 631 )" />
    <path d="M 0 14  C 0 6.15999999999997  6.16000000000003 0  14 0  C 14.8465034117786 0  15.6734213272155 0.0718134865859383  16.4751145662174 0.209801279664703  C 23.0985852555959 1.35001183096597  28 7.00663117760973  28 14  C 28 21.84  21.84 28  14 28  C 6.16000000000003 28  0 21.84  0 14  Z " stroke-width="2" stroke="#8b8888" fill="none" transform="matrix(1 0 0 1 495 631 )" mask="url(#clip102)" />
  </g>
</svg>