<?xml version="1.0" encoding="utf-8"?>
<svg version="1.1" xmlns:xlink="http://www.w3.org/1999/xlink" width="342px" height="97px" xmlns="http://www.w3.org/2000/svg">
  <defs>
    <filter x="475px" y="470px" width="342px" height="97px" filterUnits="userSpaceOnUse" id="filter39">
      <feOffset dx="3" dy="5" in="SourceAlpha" result="shadowOffsetInner" />
      <feGaussianBlur stdDeviation="2.5" in="shadowOffsetInner" result="shadowGaussian" />
      <feComposite in2="shadowGaussian" operator="atop" in="SourceAlpha" result="shadowComposite" />
      <feColorMatrix type="matrix" values="0 0 0 0 0  0 0 0 0 0  0 0 0 0 0  0 0 0 0.349019607843137 0  " in="shadowComposite" />
    </filter>
    <g id="widget40">
      <path d="M 477.5 473  A 2.5 2.5 0 0 1 480 470.5 L 806 470.5  A 2.5 2.5 0 0 1 808.5 473 L 808.5 554  A 2.5 2.5 0 0 1 806 556.5 L 480 556.5  A 2.5 2.5 0 0 1 477.5 554 L 477.5 473  Z " fill-rule="nonzero" fill="#ffffff" stroke="none" fill-opacity="0" />
      <path d="M 477.5 473  A 2.5 2.5 0 0 1 480 470.5 L 806 470.5  A 2.5 2.5 0 0 1 808.5 473 L 808.5 554  A 2.5 2.5 0 0 1 806 556.5 L 480 556.5  A 2.5 2.5 0 0 1 477.5 554 L 477.5 473  Z " stroke-width="1" stroke="#797979" fill="none" />
    </g>
  </defs>
  <g transform="matrix(1 0 0 1 -475 -470 )">
    <use xlink:href="#widget40" filter="url(#filter39)" />
    <use xlink:href="#widget40" />
  </g>
</svg>