<?xml version="1.0" encoding="utf-8"?>
<svg version="1.1" xmlns:xlink="http://www.w3.org/1999/xlink" width="45px" height="25px" xmlns="http://www.w3.org/2000/svg">
  <g transform="matrix(1 0 0 1 -169 -217 )">
    <path d="M 170 225  A 7 7 0 0 1 177 218 L 206 218  A 7 7 0 0 1 213 225 L 213 234  A 7 7 0 0 1 206 241 L 177 241  A 7 7 0 0 1 170 234 L 170 225  Z " fill-rule="nonzero" fill="#c2e38c" stroke="none" />
    <path d="M 169.5 225  A 7.5 7.5 0 0 1 177 217.5 L 206 217.5  A 7.5 7.5 0 0 1 213.5 225 L 213.5 234  A 7.5 7.5 0 0 1 206 241.5 L 177 241.5  A 7.5 7.5 0 0 1 169.5 234 L 169.5 225  Z " stroke-width="1" stroke="#ffffff" fill="none" stroke-opacity="0.00392156862745098" />
  </g>
</svg>