<?xml version="1.0" encoding="utf-8"?>
<svg version="1.1" xmlns:xlink="http://www.w3.org/1999/xlink" width="342px" height="80px" xmlns="http://www.w3.org/2000/svg">
  <defs>
    <filter x="468px" y="625px" width="342px" height="80px" filterUnits="userSpaceOnUse" id="filter43">
      <feOffset dx="3" dy="5" in="SourceAlpha" result="shadowOffsetInner" />
      <feGaussianBlur stdDeviation="2.5" in="shadowOffsetInner" result="shadowGaussian" />
      <feComposite in2="shadowGaussian" operator="atop" in="SourceAlpha" result="shadowComposite" />
      <feColorMatrix type="matrix" values="0 0 0 0 0  0 0 0 0 0  0 0 0 0 0  0 0 0 0.349019607843137 0  " in="shadowComposite" />
    </filter>
    <g id="widget44">
      <path d="M 470.5 628  A 2.5 2.5 0 0 1 473 625.5 L 799 625.5  A 2.5 2.5 0 0 1 801.5 628 L 801.5 692  A 2.5 2.5 0 0 1 799 694.5 L 473 694.5  A 2.5 2.5 0 0 1 470.5 692 L 470.5 628  Z " fill-rule="nonzero" fill="#ffffff" stroke="none" fill-opacity="0" />
      <path d="M 470.5 628  A 2.5 2.5 0 0 1 473 625.5 L 799 625.5  A 2.5 2.5 0 0 1 801.5 628 L 801.5 692  A 2.5 2.5 0 0 1 799 694.5 L 473 694.5  A 2.5 2.5 0 0 1 470.5 692 L 470.5 628  Z " stroke-width="1" stroke="#797979" fill="none" />
    </g>
  </defs>
  <g transform="matrix(1 0 0 1 -468 -625 )">
    <use xlink:href="#widget44" filter="url(#filter43)" />
    <use xlink:href="#widget44" />
  </g>
</svg>