<?xml version="1.0" encoding="utf-8"?>
<svg version="1.1" xmlns:xlink="http://www.w3.org/1999/xlink" width="99px" height="237px" xmlns="http://www.w3.org/2000/svg">
  <defs>
    <filter x="256px" y="197px" width="99px" height="237px" filterUnits="userSpaceOnUse" id="filter75">
      <feOffset dx="3" dy="5" in="SourceAlpha" result="shadowOffsetInner" />
      <feGaussianBlur stdDeviation="2.5" in="shadowOffsetInner" result="shadowGaussian" />
      <feComposite in2="shadowGaussian" operator="atop" in="SourceAlpha" result="shadowComposite" />
      <feColorMatrix type="matrix" values="0 0 0 0 0  0 0 0 0 0  0 0 0 0 0  0 0 0 0.349019607843137 0  " in="shadowComposite" />
    </filter>
    <g id="widget76">
      <path d="M 258.5 200  A 2.5 2.5 0 0 1 261 197.5 L 344 197.5  A 2.5 2.5 0 0 1 346.5 200 L 346.5 421  A 2.5 2.5 0 0 1 344 423.5 L 261 423.5  A 2.5 2.5 0 0 1 258.5 421 L 258.5 200  Z " fill-rule="nonzero" fill="#ffffff" stroke="none" fill-opacity="0" />
      <path d="M 258.5 200  A 2.5 2.5 0 0 1 261 197.5 L 344 197.5  A 2.5 2.5 0 0 1 346.5 200 L 346.5 421  A 2.5 2.5 0 0 1 344 423.5 L 261 423.5  A 2.5 2.5 0 0 1 258.5 421 L 258.5 200  Z " stroke-width="1" stroke="#797979" fill="none" />
    </g>
  </defs>
  <g transform="matrix(1 0 0 1 -256 -197 )">
    <use xlink:href="#widget76" filter="url(#filter75)" />
    <use xlink:href="#widget76" />
  </g>
</svg>