<?xml version="1.0" encoding="utf-8"?>
<svg version="1.1" xmlns:xlink="http://www.w3.org/1999/xlink" width="44px" height="164px" xmlns="http://www.w3.org/2000/svg">
  <defs>
    <filter x="1284px" y="447px" width="44px" height="164px" filterUnits="userSpaceOnUse" id="filter77">
      <feOffset dx="3" dy="5" in="SourceAlpha" result="shadowOffsetInner" />
      <feGaussianBlur stdDeviation="2.5" in="shadowOffsetInner" result="shadowGaussian" />
      <feComposite in2="shadowGaussian" operator="atop" in="SourceAlpha" result="shadowComposite" />
      <feColorMatrix type="matrix" values="0 0 0 0 0  0 0 0 0 0  0 0 0 0 0  0 0 0 0.349019607843137 0  " in="shadowComposite" />
    </filter>
    <g id="widget78">
      <path d="M 1286.5 450  A 2.5 2.5 0 0 1 1289 447.5 L 1317 447.5  A 2.5 2.5 0 0 1 1319.5 450 L 1319.5 598  A 2.5 2.5 0 0 1 1317 600.5 L 1289 600.5  A 2.5 2.5 0 0 1 1286.5 598 L 1286.5 450  Z " fill-rule="nonzero" fill="#ffffff" stroke="none" fill-opacity="0" />
      <path d="M 1286.5 450  A 2.5 2.5 0 0 1 1289 447.5 L 1317 447.5  A 2.5 2.5 0 0 1 1319.5 450 L 1319.5 598  A 2.5 2.5 0 0 1 1317 600.5 L 1289 600.5  A 2.5 2.5 0 0 1 1286.5 598 L 1286.5 450  Z " stroke-width="1" stroke="#797979" fill="none" />
    </g>
  </defs>
  <g transform="matrix(1 0 0 1 -1284 -447 )">
    <use xlink:href="#widget78" filter="url(#filter77)" />
    <use xlink:href="#widget78" />
  </g>
</svg>