<?xml version="1.0" encoding="utf-8"?>
<svg version="1.1" xmlns:xlink="http://www.w3.org/1999/xlink" width="134px" height="110px" xmlns="http://www.w3.org/2000/svg">
  <defs>
    <filter x="383px" y="166px" width="134px" height="110px" filterUnits="userSpaceOnUse" id="filter6">
      <feOffset dx="3" dy="5" in="SourceAlpha" result="shadowOffsetInner" />
      <feGaussianBlur stdDeviation="2.5" in="shadowOffsetInner" result="shadowGaussian" />
      <feComposite in2="shadowGaussian" operator="atop" in="SourceAlpha" result="shadowComposite" />
      <feColorMatrix type="matrix" values="0 0 0 0 0  0 0 0 0 0  0 0 0 0 0  0 0 0 0.349019607843137 0  " in="shadowComposite" />
    </filter>
    <g id="widget7">
      <path d="M 385.5 169  A 2.5 2.5 0 0 1 388 166.5 L 506 166.5  A 2.5 2.5 0 0 1 508.5 169 L 508.5 263  A 2.5 2.5 0 0 1 506 265.5 L 388 265.5  A 2.5 2.5 0 0 1 385.5 263 L 385.5 169  Z " fill-rule="nonzero" fill="#ffffff" stroke="none" fill-opacity="0" />
      <path d="M 385.5 169  A 2.5 2.5 0 0 1 388 166.5 L 506 166.5  A 2.5 2.5 0 0 1 508.5 169 L 508.5 263  A 2.5 2.5 0 0 1 506 265.5 L 388 265.5  A 2.5 2.5 0 0 1 385.5 263 L 385.5 169  Z " stroke-width="1" stroke="#797979" fill="none" />
    </g>
  </defs>
  <g transform="matrix(1 0 0 1 -383 -166 )">
    <use xlink:href="#widget7" filter="url(#filter6)" />
    <use xlink:href="#widget7" />
  </g>
</svg>