<?xml version="1.0" encoding="utf-8"?>
<svg version="1.1" xmlns:xlink="http://www.w3.org/1999/xlink" width="28px" height="28px" xmlns="http://www.w3.org/2000/svg">
  <defs>
    <mask fill="white" id="clip8">
      <path d="M 0 14  C 0 10.1004677102865  1.52396021195068 6.61656093292316  4.02060679032866 4.09955351343319  C 6.54346196761423 1.55612375668653  10.0595322897135 0  14 0  C 15.0171336385414 0  16.0059902862305 0.103682299792069  16.9567871272193 0.301264083528395  C 23.3348157149356 1.62680254799614  28 7.17723978058024  28 14  C 28 21.84  21.84 28  14 28  C 6.15999999999997 28  0 21.84  0 14  Z " fill-rule="evenodd" />
    </mask>
  </defs>
  <g transform="matrix(1 0 0 1 -900 -287 )">
    <path d="M 0 14  C 0 10.1004677102865  1.52396021195068 6.61656093292316  4.02060679032866 4.09955351343319  C 6.54346196761423 1.55612375668653  10.0595322897135 0  14 0  C 15.0171336385414 0  16.0059902862305 0.103682299792069  16.9567871272193 0.301264083528395  C 23.3348157149356 1.62680254799614  28 7.17723978058024  28 14  C 28 21.84  21.84 28  14 28  C 6.15999999999997 28  0 21.84  0 14  Z " fill-rule="nonzero" fill="#02a7f0" stroke="none" transform="matrix(1 0 0 1 900 287 )" />
    <path d="M 0 14  C 0 10.1004677102865  1.52396021195068 6.61656093292316  4.02060679032866 4.09955351343319  C 6.54346196761423 1.55612375668653  10.0595322897135 0  14 0  C 15.0171336385414 0  16.0059902862305 0.103682299792069  16.9567871272193 0.301264083528395  C 23.3348157149356 1.62680254799614  28 7.17723978058024  28 14  C 28 21.84  21.84 28  14 28  C 6.15999999999997 28  0 21.84  0 14  Z " stroke-width="2" stroke="#8b8888" fill="none" transform="matrix(1 0 0 1 900 287 )" mask="url(#clip8)" />
  </g>
</svg>