<?xml version="1.0" encoding="utf-8"?>
<svg version="1.1" xmlns:xlink="http://www.w3.org/1999/xlink" width="99px" height="110px" xmlns="http://www.w3.org/2000/svg">
  <defs>
    <filter x="895px" y="180px" width="99px" height="110px" filterUnits="userSpaceOnUse" id="filter9">
      <feOffset dx="3" dy="5" in="SourceAlpha" result="shadowOffsetInner" />
      <feGaussianBlur stdDeviation="2.5" in="shadowOffsetInner" result="shadowGaussian" />
      <feComposite in2="shadowGaussian" operator="atop" in="SourceAlpha" result="shadowComposite" />
      <feColorMatrix type="matrix" values="0 0 0 0 0  0 0 0 0 0  0 0 0 0 0  0 0 0 0.349019607843137 0  " in="shadowComposite" />
    </filter>
    <g id="widget10">
      <path d="M 897.5 183  A 2.5 2.5 0 0 1 900 180.5 L 983 180.5  A 2.5 2.5 0 0 1 985.5 183 L 985.5 277  A 2.5 2.5 0 0 1 983 279.5 L 900 279.5  A 2.5 2.5 0 0 1 897.5 277 L 897.5 183  Z " fill-rule="nonzero" fill="#ffffff" stroke="none" fill-opacity="0" />
      <path d="M 897.5 183  A 2.5 2.5 0 0 1 900 180.5 L 983 180.5  A 2.5 2.5 0 0 1 985.5 183 L 985.5 277  A 2.5 2.5 0 0 1 983 279.5 L 900 279.5  A 2.5 2.5 0 0 1 897.5 277 L 897.5 183  Z " stroke-width="1" stroke="#797979" fill="none" />
    </g>
  </defs>
  <g transform="matrix(1 0 0 1 -895 -180 )">
    <use xlink:href="#widget10" filter="url(#filter9)" />
    <use xlink:href="#widget10" />
  </g>
</svg>