<?xml version="1.0" encoding="utf-8"?>
<svg version="1.1" xmlns:xlink="http://www.w3.org/1999/xlink" width="118px" height="110px" xmlns="http://www.w3.org/2000/svg">
  <defs>
    <filter x="871px" y="188px" width="118px" height="110px" filterUnits="userSpaceOnUse" id="filter23">
      <feOffset dx="3" dy="5" in="SourceAlpha" result="shadowOffsetInner" />
      <feGaussianBlur stdDeviation="2.5" in="shadowOffsetInner" result="shadowGaussian" />
      <feComposite in2="shadowGaussian" operator="atop" in="SourceAlpha" result="shadowComposite" />
      <feColorMatrix type="matrix" values="0 0 0 0 0  0 0 0 0 0  0 0 0 0 0  0 0 0 0.349019607843137 0  " in="shadowComposite" />
    </filter>
    <g id="widget24">
      <path d="M 873.5 191  A 2.5 2.5 0 0 1 876 188.5 L 978 188.5  A 2.5 2.5 0 0 1 980.5 191 L 980.5 285  A 2.5 2.5 0 0 1 978 287.5 L 876 287.5  A 2.5 2.5 0 0 1 873.5 285 L 873.5 191  Z " fill-rule="nonzero" fill="#ffffff" stroke="none" fill-opacity="0" />
      <path d="M 873.5 191  A 2.5 2.5 0 0 1 876 188.5 L 978 188.5  A 2.5 2.5 0 0 1 980.5 191 L 980.5 285  A 2.5 2.5 0 0 1 978 287.5 L 876 287.5  A 2.5 2.5 0 0 1 873.5 285 L 873.5 191  Z " stroke-width="1" stroke="#797979" fill="none" />
    </g>
  </defs>
  <g transform="matrix(1 0 0 1 -871 -188 )">
    <use xlink:href="#widget24" filter="url(#filter23)" />
    <use xlink:href="#widget24" />
  </g>
</svg>