<?xml version="1.0" encoding="utf-8"?>
<svg version="1.1" xmlns:xlink="http://www.w3.org/1999/xlink" width="25px" height="32px" xmlns="http://www.w3.org/2000/svg">
  <g transform="matrix(1 0 0 1 -64 -199 )">
    <path d="M 24.4140625 25.7363636363636  C 24.8046875 26.2151515151515  25 26.7515151515152  25 27.3454545454545  C 25 28.1090909090909  24.6360085227273 28.7969696969697  23.9080255681818 29.4090909090909  C 23.1800426136364 30.0212121212121  22.2093986742424 30.5121212121212  20.99609375 30.8818181818182  C 19.7827888257576 31.2515151515152  18.4511126893939 31.530303030303  17.0010653409091 31.7181818181818  C 15.5510179924242 31.9060606060606  14.0506628787879 32  12.5 32  C 10.9493371212121 32  9.44898200757576 31.9060606060606  7.99893465909091 31.7181818181818  C 6.54888731060606 31.530303030303  5.21721117424242 31.2515151515152  4.00390625 30.8818181818182  C 2.79060132575758 30.5121212121212  1.81995738636364 30.0212121212121  1.09197443181818 29.4090909090909  C 0.363991477272727 28.7969696969697  0 28.1090909090909  0 27.3454545454545  C 0 26.7515151515152  0.1953125 26.2151515151515  0.5859375 25.7363636363636  C 0.9765625 25.2575757575758  1.51515151515152 24.8545454545455  2.20170454545455 24.5272727272727  C 2.88825757575758 24.2  3.58664772727273 23.930303030303  4.296875 23.7181818181818  C 5.00710227272727 23.5060606060606  5.78243371212121 23.3272727272727  6.62286931818182 23.1818181818182  C 6.93063446969697 23.1212121212121  7.21472537878788 23.1848484848485  7.47514204545455 23.3727272727273  C 7.73555871212121 23.5606060606061  7.88944128787879 23.8121212121212  7.93678977272727 24.1272727272727  C 7.99597537878788 24.4424242424242  7.93383049242424 24.7333333333333  7.75035511363636 25  C 7.56687973484848 25.2666666666667  7.32125946969697 25.4242424242424  7.01349431818182 25.4727272727273  C 6.32694128787879 25.5939393939394  5.69957386363636 25.7363636363636  5.13139204545455 25.9  C 4.56321022727273 26.0636363636364  4.11044034090909 26.2181818181818  3.77308238636364 26.3636363636364  C 3.43572443181818 26.5090909090909  3.14867424242424 26.6515151515151  2.91193181818182 26.7909090909091  C 2.67518939393939 26.930303030303  2.51242897727273 27.0484848484849  2.42365056818182 27.1454545454545  C 2.33487215909091 27.2424242424242  2.28456439393939 27.3151515151515  2.27272727272727 27.3636363636364  C 2.30823863636364 27.4969696969697  2.46803977272727 27.6575757575758  2.75213068181818 27.8454545454545  C 3.03622159090909 28.0333333333333  3.46827651515152 28.2333333333333  4.04829545454545 28.4454545454545  C 4.62831439393939 28.6575757575758  5.3030303030303 28.8545454545455  6.07244318181818 29.0363636363636  C 6.84185606060606 29.2181818181818  7.79178503787879 29.369696969697  8.92223011363636 29.4909090909091  C 10.0526751893939 29.6121212121212  11.2452651515152 29.6727272727273  12.5 29.6727272727273  C 13.7547348484849 29.6727272727273  14.9473248106061 29.6121212121212  16.0777698863636 29.4909090909091  C 17.2082149621212 29.369696969697  18.1581439393939 29.2181818181818  18.9275568181818 29.0363636363636  C 19.6969696969697 28.8545454545455  20.3716856060606 28.6545454545455  20.9517045454545 28.4363636363636  C 21.5317234848485 28.2181818181818  21.9637784090909 28.0151515151515  22.2478693181818 27.8272727272727  C 22.5319602272727 27.6393939393939  22.6917613636364 27.4727272727273  22.7272727272727 27.3272727272727  C 22.7154356060606 27.2787878787879  22.6651278409091 27.2121212121212  22.5763494318182 27.1272727272727  C 22.4875710227273 27.0424242424242  22.3248106060606 26.9272727272727  22.0880681818182 26.7818181818182  C 21.8513257575758 26.6363636363636  21.5642755681818 26.4939393939394  21.2269176136364 26.3545454545455  C 20.8895596590909 26.2151515151515  20.4367897727273 26.0636363636364  19.8686079545455 25.9  C 19.3004261363636 25.7363636363636  18.6730587121212 25.5939393939394  17.9865056818182 25.4727272727273  C 17.678740530303 25.4242424242424  17.4331202651515 25.2666666666667  17.2496448863636 25  C 17.0661695075758 24.7333333333333  17.0040246212121 24.4424242424242  17.0632102272727 24.1272727272727  C 17.1105587121212 23.8121212121212  17.2644412878788 23.5606060606061  17.5248579545455 23.3727272727273  C 17.7852746212121 23.1848484848485  18.069365530303 23.1212121212121  18.3771306818182 23.1818181818182  C 19.2175662878788 23.3272727272727  19.9928977272727 23.5060606060606  20.703125 23.7181818181818  C 21.4133522727273 23.930303030303  22.1117424242424 24.2  22.7982954545455 24.5272727272727  C 23.4848484848485 24.8545454545455  24.0234375 25.2575757575758  24.4140625 25.7363636363636  Z M 17.5159801136364 9.40909090909091  C 17.9598721590909 9.86363636363636  18.1818181818182 10.4121212121212  18.1818181818182 11.0545454545455  L 18.1818181818182 18.0363636363636  C 18.1818181818182 18.3515151515152  18.069365530303 18.6242424242424  17.8444602272727 18.8545454545455  C 17.6195549242424 19.0848484848485  17.3532196969697 19.2  17.0454545454545 19.2  L 15.9090909090909 19.2  L 15.9090909090909 26.1818181818182  C 15.9090909090909 26.4969696969697  15.7966382575758 26.769696969697  15.5717329545455 27  C 15.3468276515152 27.230303030303  15.0804924242424 27.3454545454545  14.7727272727273 27.3454545454545  L 10.2272727272727 27.3454545454545  C 9.91950757575758 27.3454545454545  9.65317234848485 27.230303030303  9.42826704545455 27  C 9.20336174242424 26.769696969697  9.09090909090909 26.4969696969697  9.09090909090909 26.1818181818182  L 9.09090909090909 19.2  L 7.95454545454545 19.2  C 7.6467803030303 19.2  7.38044507575758 19.0848484848485  7.15553977272727 18.8545454545455  C 6.93063446969697 18.6242424242424  6.81818181818182 18.3515151515152  6.81818181818182 18.0363636363636  L 6.81818181818182 11.0545454545455  C 6.81818181818182 10.4121212121212  7.04012784090909 9.86363636363636  7.48401988636364 9.40909090909091  C 7.92791193181818 8.95454545454545  8.46354166666667 8.72727272727273  9.09090909090909 8.72727272727273  L 15.9090909090909 8.72727272727273  C 16.5364583333333 8.72727272727273  17.0720880681818 8.95454545454545  17.5159801136364 9.40909090909091  Z M 15.3142755681818 1.19090909090909  C 16.0896070075758 1.98484848484848  16.4772727272727 2.94545454545455  16.4772727272727 4.07272727272727  C 16.4772727272727 5.2  16.0896070075758 6.16060606060606  15.3142755681818 6.95454545454545  C 14.5389441287879 7.74848484848485  13.6008522727273 8.14545454545454  12.5 8.14545454545454  C 11.3991477272727 8.14545454545454  10.4610558712121 7.74848484848485  9.68572443181818 6.95454545454545  C 8.91039299242424 6.16060606060606  8.52272727272727 5.2  8.52272727272727 4.07272727272727  C 8.52272727272727 2.94545454545455  8.91039299242424 1.98484848484848  9.68572443181818 1.19090909090909  C 10.4610558712121 0.396969696969695  11.3991477272727 0  12.5 0  C 13.6008522727273 0  14.5389441287879 0.396969696969695  15.3142755681818 1.19090909090909  Z " fill-rule="nonzero" fill="#797979" stroke="none" transform="matrix(1 0 0 1 64 199 )" />
  </g>
</svg>