<?xml version="1.0" encoding="utf-8"?>
<svg version="1.1" xmlns:xlink="http://www.w3.org/1999/xlink" width="22px" height="29px" xmlns="http://www.w3.org/2000/svg">
  <g transform="matrix(1 0 0 1 -64 -310 )">
    <path d="M 6.11111111111111 14  L 20.1666666666667 14  C 20.6759259259259 14.5  21.1087962962963 14.6762152777778  21.4652777777778 15.0286458333333  C 21.8217592592593 15.3810763888889  22 15.8090277777778  22 16.3125  L 22 27.1875  C 22 27.6909722222222  21.8217592592593 28.1189236111111  21.4652777777778 28.4713541666667  C 21.1087962962963 28.8237847222222  20.6759259259259 29  20.1666666666667 29  L 1.83333333333333 29  C 1.32407407407407 29  0.891203703703704 28.8237847222222  0.534722222222222 28.4713541666667  C 0.178240740740741 28.1189236111111  0 27.6909722222222  0 27.1875  L 0 16.3125  C 0 15.8090277777778  0.178240740740741 15.3810763888889  0.534722222222222 15.0286458333333  C 0.891203703703704 14.6762152777778  1.32407407407407 14.5  1.83333333333333 14.5  L 2.44444444444444 14.5  L 2.44444444444444 8.45833333333333  C 2.44444444444444 6.12977430555555  3.28153935185185 4.13791232638888  4.95572916666667 2.48274739583333  C 6.62991898148148 0.82758246527778  8.64467592592593 0  11 0  C 13.3553240740741 0  15.3700810185185 0.82758246527778  17.0442708333333 2.48274739583333  C 18.7184606481481 4.13791232638888  19.5555555555556 6.12977430555555  19.5555555555556 8.45833333333333  C 19.5555555555556 8.78559027777778  19.4346064814815 9.06879340277778  19.1927083333333 9.30794270833333  C 18.9508101851852 9.54709201388889  18.6643518518519 9.66666666666667  18.3333333333333 9.66666666666667  L 17.1111111111111 9.66666666666667  C 16.7800925925926 9.66666666666667  16.4936342592593 9.54709201388889  16.2517361111111 9.30794270833333  C 16.009837962963 9.06879340277778  15.8888888888889 8.78559027777778  15.8888888888889 8.45833333333333  C 15.8888888888889 7.12413194444444  15.4114583333333 5.98502604166667  14.4565972222222 5.041015625  C 13.5017361111111 4.09700520833333  12.349537037037 3.625  11 3.625  C 9.65046296296296 3.625  8.49826388888889 4.09700520833333  7.54340277777778 5.041015625  C 6.58854166666667 5.98502604166667  6.11111111111111 7.12413194444444  6.11111111111111 8.45833333333333  L 6.11111111111111 14  Z " fill-rule="nonzero" fill="#8b8888" stroke="none" transform="matrix(1 0 0 1 64 310 )" />
  </g>
</svg>