<?xml version="1.0" encoding="utf-8"?>
<svg version="1.1" xmlns:xlink="http://www.w3.org/1999/xlink" width="28px" height="29px" xmlns="http://www.w3.org/2000/svg">
  <defs>
    <mask fill="white" id="clip99">
      <path d="M 0 14.5  C 0 6.38000000000003  6.16000000000003 0  14 0  C 16.0201110600357 0  17.9286828882508 0.42358351131893  19.6490754724585 1.19137337847781  C 24.6054830538566 3.40335659291322  28 8.4722578836084  28 14.5  C 28 22.62  21.84 29  14 29  C 6.16000000000003 29  0 22.62  0 14.5  Z " fill-rule="evenodd" />
    </mask>
  </defs>
  <g transform="matrix(1 0 0 1 -489 -293 )">
    <path d="M 0 14.5  C 0 6.38000000000003  6.16000000000003 0  14 0  C 16.0201110600357 0  17.9286828882508 0.42358351131893  19.6490754724585 1.19137337847781  C 24.6054830538566 3.40335659291322  28 8.4722578836084  28 14.5  C 28 22.62  21.84 29  14 29  C 6.16000000000003 29  0 22.62  0 14.5  Z " fill-rule="nonzero" fill="#02a7f0" stroke="none" transform="matrix(1 0 0 1 489 293 )" />
    <path d="M 0 14.5  C 0 6.38000000000003  6.16000000000003 0  14 0  C 16.0201110600357 0  17.9286828882508 0.42358351131893  19.6490754724585 1.19137337847781  C 24.6054830538566 3.40335659291322  28 8.4722578836084  28 14.5  C 28 22.62  21.84 29  14 29  C 6.16000000000003 29  0 22.62  0 14.5  Z " stroke-width="2" stroke="#8b8888" fill="none" transform="matrix(1 0 0 1 489 293 )" mask="url(#clip99)" />
  </g>
</svg>