<?xml version="1.0" encoding="utf-8"?>
<svg version="1.1" xmlns:xlink="http://www.w3.org/1999/xlink" width="342px" height="67px" xmlns="http://www.w3.org/2000/svg">
  <defs>
    <filter x="475px" y="102px" width="342px" height="67px" filterUnits="userSpaceOnUse" id="filter97">
      <feOffset dx="3" dy="5" in="SourceAlpha" result="shadowOffsetInner" />
      <feGaussianBlur stdDeviation="2.5" in="shadowOffsetInner" result="shadowGaussian" />
      <feComposite in2="shadowGaussian" operator="atop" in="SourceAlpha" result="shadowComposite" />
      <feColorMatrix type="matrix" values="0 0 0 0 0  0 0 0 0 0  0 0 0 0 0  0 0 0 0.349019607843137 0  " in="shadowComposite" />
    </filter>
    <g id="widget98">
      <path d="M 477.5 105  A 2.5 2.5 0 0 1 480 102.5 L 806 102.5  A 2.5 2.5 0 0 1 808.5 105 L 808.5 156  A 2.5 2.5 0 0 1 806 158.5 L 480 158.5  A 2.5 2.5 0 0 1 477.5 156 L 477.5 105  Z " fill-rule="nonzero" fill="#ffffff" stroke="none" fill-opacity="0" />
      <path d="M 477.5 105  A 2.5 2.5 0 0 1 480 102.5 L 806 102.5  A 2.5 2.5 0 0 1 808.5 105 L 808.5 156  A 2.5 2.5 0 0 1 806 158.5 L 480 158.5  A 2.5 2.5 0 0 1 477.5 156 L 477.5 105  Z " stroke-width="1" stroke="#797979" fill="none" />
    </g>
  </defs>
  <g transform="matrix(1 0 0 1 -475 -102 )">
    <use xlink:href="#widget98" filter="url(#filter97)" />
    <use xlink:href="#widget98" />
  </g>
</svg>