<?xml version="1.0" encoding="utf-8"?>
<svg version="1.1" xmlns:xlink="http://www.w3.org/1999/xlink" width="175px" height="169px" xmlns="http://www.w3.org/2000/svg">
  <defs>
    <filter x="1117px" y="445px" width="175px" height="169px" filterUnits="userSpaceOnUse" id="filter136">
      <feOffset dx="3" dy="5" in="SourceAlpha" result="shadowOffsetInner" />
      <feGaussianBlur stdDeviation="2.5" in="shadowOffsetInner" result="shadowGaussian" />
      <feComposite in2="shadowGaussian" operator="atop" in="SourceAlpha" result="shadowComposite" />
      <feColorMatrix type="matrix" values="0 0 0 0 0  0 0 0 0 0  0 0 0 0 0  0 0 0 0.349019607843137 0  " in="shadowComposite" />
    </filter>
    <g id="widget137">
      <path d="M 1119.5 448  A 2.5 2.5 0 0 1 1122 445.5 L 1281 445.5  A 2.5 2.5 0 0 1 1283.5 448 L 1283.5 601  A 2.5 2.5 0 0 1 1281 603.5 L 1122 603.5  A 2.5 2.5 0 0 1 1119.5 601 L 1119.5 448  Z " fill-rule="nonzero" fill="#ffffff" stroke="none" fill-opacity="0" />
      <path d="M 1119.5 448  A 2.5 2.5 0 0 1 1122 445.5 L 1281 445.5  A 2.5 2.5 0 0 1 1283.5 448 L 1283.5 601  A 2.5 2.5 0 0 1 1281 603.5 L 1122 603.5  A 2.5 2.5 0 0 1 1119.5 601 L 1119.5 448  Z " stroke-width="1" stroke="#797979" fill="none" />
    </g>
  </defs>
  <g transform="matrix(1 0 0 1 -1117 -445 )">
    <use xlink:href="#widget137" filter="url(#filter136)" />
    <use xlink:href="#widget137" />
  </g>
</svg>