<?xml version="1.0" encoding="utf-8"?>
<svg version="1.1" xmlns:xlink="http://www.w3.org/1999/xlink" width="28px" height="28px" xmlns="http://www.w3.org/2000/svg">
  <defs>
    <mask fill="white" id="clip94">
      <path d="M 0 14  C 0 6.16000000000003  6.16000000000003 0  14 0  C 20.4893858250286 0  25.8277477327993 4.22042102994635  27.4744604536098 10.1206378201372  C 27.817204133874 11.3487644614715  28 12.6494555217186  28 14  C 28 21.84  21.84 28  14 28  C 6.16000000000003 28  0 21.84  0 14  Z " fill-rule="evenodd" />
    </mask>
  </defs>
  <g transform="matrix(1 0 0 1 -488 -326 )">
    <path d="M 0 14  C 0 6.16000000000003  6.16000000000003 0  14 0  C 20.4893858250286 0  25.8277477327993 4.22042102994635  27.4744604536098 10.1206378201372  C 27.817204133874 11.3487644614715  28 12.6494555217186  28 14  C 28 21.84  21.84 28  14 28  C 6.16000000000003 28  0 21.84  0 14  Z " fill-rule="nonzero" fill="#02a7f0" stroke="none" transform="matrix(1 0 0 1 488 326 )" />
    <path d="M 0 14  C 0 6.16000000000003  6.16000000000003 0  14 0  C 20.4893858250286 0  25.8277477327993 4.22042102994635  27.4744604536098 10.1206378201372  C 27.817204133874 11.3487644614715  28 12.6494555217186  28 14  C 28 21.84  21.84 28  14 28  C 6.16000000000003 28  0 21.84  0 14  Z " stroke-width="2" stroke="#8b8888" fill="none" transform="matrix(1 0 0 1 488 326 )" mask="url(#clip94)" />
  </g>
</svg>