<?xml version="1.0" encoding="utf-8"?>
<svg version="1.1" xmlns:xlink="http://www.w3.org/1999/xlink" width="109px" height="103px" xmlns="http://www.w3.org/2000/svg">
  <defs>
    <filter x="979px" y="290px" width="109px" height="103px" filterUnits="userSpaceOnUse" id="filter15">
      <feOffset dx="3" dy="5" in="SourceAlpha" result="shadowOffsetInner" />
      <feGaussianBlur stdDeviation="2.5" in="shadowOffsetInner" result="shadowGaussian" />
      <feComposite in2="shadowGaussian" operator="atop" in="SourceAlpha" result="shadowComposite" />
      <feColorMatrix type="matrix" values="0 0 0 0 0  0 0 0 0 0  0 0 0 0 0  0 0 0 0.349019607843137 0  " in="shadowComposite" />
    </filter>
    <g id="widget16">
      <path d="M 981.5 293  A 2.5 2.5 0 0 1 984 290.5 L 1077 290.5  A 2.5 2.5 0 0 1 1079.5 293 L 1079.5 380  A 2.5 2.5 0 0 1 1077 382.5 L 984 382.5  A 2.5 2.5 0 0 1 981.5 380 L 981.5 293  Z " fill-rule="nonzero" fill="#ffffff" stroke="none" fill-opacity="0" />
      <path d="M 981.5 293  A 2.5 2.5 0 0 1 984 290.5 L 1077 290.5  A 2.5 2.5 0 0 1 1079.5 293 L 1079.5 380  A 2.5 2.5 0 0 1 1077 382.5 L 984 382.5  A 2.5 2.5 0 0 1 981.5 380 L 981.5 293  Z " stroke-width="1" stroke="#797979" fill="none" />
    </g>
  </defs>
  <g transform="matrix(1 0 0 1 -979 -290 )">
    <use xlink:href="#widget16" filter="url(#filter15)" />
    <use xlink:href="#widget16" />
  </g>
</svg>