<?xml version="1.0" encoding="utf-8"?>
<svg version="1.1" xmlns:xlink="http://www.w3.org/1999/xlink" width="114px" height="117px" xmlns="http://www.w3.org/2000/svg">
  <defs>
    <filter x="378px" y="169px" width="114px" height="117px" filterUnits="userSpaceOnUse" id="filter17">
      <feOffset dx="3" dy="5" in="SourceAlpha" result="shadowOffsetInner" />
      <feGaussianBlur stdDeviation="2.5" in="shadowOffsetInner" result="shadowGaussian" />
      <feComposite in2="shadowGaussian" operator="atop" in="SourceAlpha" result="shadowComposite" />
      <feColorMatrix type="matrix" values="0 0 0 0 0  0 0 0 0 0  0 0 0 0 0  0 0 0 0.349019607843137 0  " in="shadowComposite" />
    </filter>
    <g id="widget18">
      <path d="M 380.5 172  A 2.5 2.5 0 0 1 383 169.5 L 481 169.5  A 2.5 2.5 0 0 1 483.5 172 L 483.5 273  A 2.5 2.5 0 0 1 481 275.5 L 383 275.5  A 2.5 2.5 0 0 1 380.5 273 L 380.5 172  Z " fill-rule="nonzero" fill="#ffffff" stroke="none" fill-opacity="0" />
      <path d="M 380.5 172  A 2.5 2.5 0 0 1 383 169.5 L 481 169.5  A 2.5 2.5 0 0 1 483.5 172 L 483.5 273  A 2.5 2.5 0 0 1 481 275.5 L 383 275.5  A 2.5 2.5 0 0 1 380.5 273 L 380.5 172  Z " stroke-width="1" stroke="#797979" fill="none" />
    </g>
  </defs>
  <g transform="matrix(1 0 0 1 -378 -169 )">
    <use xlink:href="#widget18" filter="url(#filter17)" />
    <use xlink:href="#widget18" />
  </g>
</svg>