<?xml version="1.0" encoding="utf-8"?>
<svg version="1.1" xmlns:xlink="http://www.w3.org/1999/xlink" width="342px" height="96px" xmlns="http://www.w3.org/2000/svg">
  <defs>
    <filter x="475px" y="298px" width="342px" height="96px" filterUnits="userSpaceOnUse" id="filter32">
      <feOffset dx="3" dy="5" in="SourceAlpha" result="shadowOffsetInner" />
      <feGaussianBlur stdDeviation="2.5" in="shadowOffsetInner" result="shadowGaussian" />
      <feComposite in2="shadowGaussian" operator="atop" in="SourceAlpha" result="shadowComposite" />
      <feColorMatrix type="matrix" values="0 0 0 0 0  0 0 0 0 0  0 0 0 0 0  0 0 0 0.349019607843137 0  " in="shadowComposite" />
    </filter>
    <g id="widget33">
      <path d="M 477.5 301  A 2.5 2.5 0 0 1 480 298.5 L 806 298.5  A 2.5 2.5 0 0 1 808.5 301 L 808.5 381  A 2.5 2.5 0 0 1 806 383.5 L 480 383.5  A 2.5 2.5 0 0 1 477.5 381 L 477.5 301  Z " fill-rule="nonzero" fill="#ffffff" stroke="none" fill-opacity="0" />
      <path d="M 477.5 301  A 2.5 2.5 0 0 1 480 298.5 L 806 298.5  A 2.5 2.5 0 0 1 808.5 301 L 808.5 381  A 2.5 2.5 0 0 1 806 383.5 L 480 383.5  A 2.5 2.5 0 0 1 477.5 381 L 477.5 301  Z " stroke-width="1" stroke="#797979" fill="none" />
    </g>
  </defs>
  <g transform="matrix(1 0 0 1 -475 -298 )">
    <use xlink:href="#widget33" filter="url(#filter32)" />
    <use xlink:href="#widget33" />
  </g>
</svg>