<?xml version="1.0" encoding="utf-8"?>
<svg version="1.1" xmlns:xlink="http://www.w3.org/1999/xlink" width="28px" height="28px" xmlns="http://www.w3.org/2000/svg">
  <defs>
    <mask fill="white" id="clip34">
      <path d="M 0 14  C 0 6.16000000000003  6.16000000000003 0  14 0  C 16.0201110600357 0  17.9286828882508 0.408977183342415  19.6490754724585 1.15029153784064  C 24.6054830538566 3.28599946901966  28 8.1801110600357  28 14  C 28 21.84  21.84 28  14 28  C 6.16000000000003 28  0 21.84  0 14  Z " fill-rule="evenodd" />
    </mask>
  </defs>
  <g transform="matrix(1 0 0 1 -486 -313 )">
    <path d="M 0 14  C 0 6.16000000000003  6.16000000000003 0  14 0  C 16.0201110600357 0  17.9286828882508 0.408977183342415  19.6490754724585 1.15029153784064  C 24.6054830538566 3.28599946901966  28 8.1801110600357  28 14  C 28 21.84  21.84 28  14 28  C 6.16000000000003 28  0 21.84  0 14  Z " fill-rule="nonzero" fill="#02a7f0" stroke="none" transform="matrix(1 0 0 1 486 313 )" />
    <path d="M 0 14  C 0 6.16000000000003  6.16000000000003 0  14 0  C 16.0201110600357 0  17.9286828882508 0.408977183342415  19.6490754724585 1.15029153784064  C 24.6054830538566 3.28599946901966  28 8.1801110600357  28 14  C 28 21.84  21.84 28  14 28  C 6.16000000000003 28  0 21.84  0 14  Z " stroke-width="2" stroke="#8b8888" fill="none" transform="matrix(1 0 0 1 486 313 )" mask="url(#clip34)" />
  </g>
</svg>