<?xml version="1.0" encoding="utf-8"?>
<svg version="1.1" xmlns:xlink="http://www.w3.org/1999/xlink" width="175px" height="98px" xmlns="http://www.w3.org/2000/svg">
  <defs>
    <filter x="1122px" y="70px" width="175px" height="98px" filterUnits="userSpaceOnUse" id="filter127">
      <feOffset dx="3" dy="5" in="SourceAlpha" result="shadowOffsetInner" />
      <feGaussianBlur stdDeviation="2.5" in="shadowOffsetInner" result="shadowGaussian" />
      <feComposite in2="shadowGaussian" operator="atop" in="SourceAlpha" result="shadowComposite" />
      <feColorMatrix type="matrix" values="0 0 0 0 0  0 0 0 0 0  0 0 0 0 0  0 0 0 0.349019607843137 0  " in="shadowComposite" />
    </filter>
    <g id="widget128">
      <path d="M 1124.5 73  A 2.5 2.5 0 0 1 1127 70.5 L 1286 70.5  A 2.5 2.5 0 0 1 1288.5 73 L 1288.5 155  A 2.5 2.5 0 0 1 1286 157.5 L 1127 157.5  A 2.5 2.5 0 0 1 1124.5 155 L 1124.5 73  Z " fill-rule="nonzero" fill="#ffffff" stroke="none" fill-opacity="0" />
      <path d="M 1124.5 73  A 2.5 2.5 0 0 1 1127 70.5 L 1286 70.5  A 2.5 2.5 0 0 1 1288.5 73 L 1288.5 155  A 2.5 2.5 0 0 1 1286 157.5 L 1127 157.5  A 2.5 2.5 0 0 1 1124.5 155 L 1124.5 73  Z " stroke-width="1" stroke="#797979" fill="none" />
    </g>
  </defs>
  <g transform="matrix(1 0 0 1 -1122 -70 )">
    <use xlink:href="#widget128" filter="url(#filter127)" />
    <use xlink:href="#widget128" />
  </g>
</svg>