<?xml version="1.0" encoding="utf-8"?>
<svg version="1.1" xmlns:xlink="http://www.w3.org/1999/xlink" width="342px" height="68px" xmlns="http://www.w3.org/2000/svg">
  <defs>
    <filter x="477px" y="260px" width="342px" height="68px" filterUnits="userSpaceOnUse" id="filter71">
      <feOffset dx="3" dy="5" in="SourceAlpha" result="shadowOffsetInner" />
      <feGaussianBlur stdDeviation="2.5" in="shadowOffsetInner" result="shadowGaussian" />
      <feComposite in2="shadowGaussian" operator="atop" in="SourceAlpha" result="shadowComposite" />
      <feColorMatrix type="matrix" values="0 0 0 0 0  0 0 0 0 0  0 0 0 0 0  0 0 0 0.349019607843137 0  " in="shadowComposite" />
    </filter>
    <g id="widget72">
      <path d="M 479.5 263  A 2.5 2.5 0 0 1 482 260.5 L 808 260.5  A 2.5 2.5 0 0 1 810.5 263 L 810.5 315  A 2.5 2.5 0 0 1 808 317.5 L 482 317.5  A 2.5 2.5 0 0 1 479.5 315 L 479.5 263  Z " fill-rule="nonzero" fill="#ffffff" stroke="none" fill-opacity="0" />
      <path d="M 479.5 263  A 2.5 2.5 0 0 1 482 260.5 L 808 260.5  A 2.5 2.5 0 0 1 810.5 263 L 810.5 315  A 2.5 2.5 0 0 1 808 317.5 L 482 317.5  A 2.5 2.5 0 0 1 479.5 315 L 479.5 263  Z " stroke-width="1" stroke="#797979" fill="none" />
    </g>
  </defs>
  <g transform="matrix(1 0 0 1 -477 -260 )">
    <use xlink:href="#widget72" filter="url(#filter71)" />
    <use xlink:href="#widget72" />
  </g>
</svg>