<?xml version="1.0" encoding="utf-8"?>
<svg version="1.1" xmlns:xlink="http://www.w3.org/1999/xlink" width="342px" height="136px" xmlns="http://www.w3.org/2000/svg">
  <defs>
    <filter x="475px" y="464px" width="342px" height="136px" filterUnits="userSpaceOnUse" id="filter107">
      <feOffset dx="3" dy="5" in="SourceAlpha" result="shadowOffsetInner" />
      <feGaussianBlur stdDeviation="2.5" in="shadowOffsetInner" result="shadowGaussian" />
      <feComposite in2="shadowGaussian" operator="atop" in="SourceAlpha" result="shadowComposite" />
      <feColorMatrix type="matrix" values="0 0 0 0 0  0 0 0 0 0  0 0 0 0 0  0 0 0 0.349019607843137 0  " in="shadowComposite" />
    </filter>
    <g id="widget108">
      <path d="M 477.5 467  A 2.5 2.5 0 0 1 480 464.5 L 806 464.5  A 2.5 2.5 0 0 1 808.5 467 L 808.5 587  A 2.5 2.5 0 0 1 806 589.5 L 480 589.5  A 2.5 2.5 0 0 1 477.5 587 L 477.5 467  Z " fill-rule="nonzero" fill="#ffffff" stroke="none" fill-opacity="0" />
      <path d="M 477.5 467  A 2.5 2.5 0 0 1 480 464.5 L 806 464.5  A 2.5 2.5 0 0 1 808.5 467 L 808.5 587  A 2.5 2.5 0 0 1 806 589.5 L 480 589.5  A 2.5 2.5 0 0 1 477.5 587 L 477.5 467  Z " stroke-width="1" stroke="#797979" fill="none" />
    </g>
  </defs>
  <g transform="matrix(1 0 0 1 -475 -464 )">
    <use xlink:href="#widget108" filter="url(#filter107)" />
    <use xlink:href="#widget108" />
  </g>
</svg>