<?xml version="1.0" encoding="utf-8"?>
<svg version="1.1" xmlns:xlink="http://www.w3.org/1999/xlink" width="342px" height="196px" xmlns="http://www.w3.org/2000/svg">
  <defs>
    <filter x="473px" y="60px" width="342px" height="196px" filterUnits="userSpaceOnUse" id="filter109">
      <feOffset dx="3" dy="5" in="SourceAlpha" result="shadowOffsetInner" />
      <feGaussianBlur stdDeviation="2.5" in="shadowOffsetInner" result="shadowGaussian" />
      <feComposite in2="shadowGaussian" operator="atop" in="SourceAlpha" result="shadowComposite" />
      <feColorMatrix type="matrix" values="0 0 0 0 0  0 0 0 0 0  0 0 0 0 0  0 0 0 0.349019607843137 0  " in="shadowComposite" />
    </filter>
    <g id="widget110">
      <path d="M 475.5 63  A 2.5 2.5 0 0 1 478 60.5 L 804 60.5  A 2.5 2.5 0 0 1 806.5 63 L 806.5 243  A 2.5 2.5 0 0 1 804 245.5 L 478 245.5  A 2.5 2.5 0 0 1 475.5 243 L 475.5 63  Z " fill-rule="nonzero" fill="#ffffff" stroke="none" fill-opacity="0" />
      <path d="M 475.5 63  A 2.5 2.5 0 0 1 478 60.5 L 804 60.5  A 2.5 2.5 0 0 1 806.5 63 L 806.5 243  A 2.5 2.5 0 0 1 804 245.5 L 478 245.5  A 2.5 2.5 0 0 1 475.5 243 L 475.5 63  Z " stroke-width="1" stroke="#797979" fill="none" />
    </g>
  </defs>
  <g transform="matrix(1 0 0 1 -473 -60 )">
    <use xlink:href="#widget110" filter="url(#filter109)" />
    <use xlink:href="#widget110" />
  </g>
</svg>