<?xml version="1.0" encoding="utf-8"?>
<svg version="1.1" xmlns:xlink="http://www.w3.org/1999/xlink" width="274px" height="118px" xmlns="http://www.w3.org/2000/svg">
  <defs>
    <mask fill="white" id="clip27">
      <path d="M 0 105.3  L 0 82.7052631578941  L 0 2.7  C 0 1.18799999999999  1.31999999999999 0  3 0  L 261 0  C 262.68 0  264 1.18799999999999  264 2.7  L 264 105.3  C 264 106.812  262.68 108  261 108  L 3 108  C 1.31999999999999 108  0 106.812  0 105.3  Z " fill-rule="evenodd" />
    </mask>
    <filter x="470px" y="330px" width="274px" height="118px" filterUnits="userSpaceOnUse" id="filter28">
      <feOffset dx="3" dy="5" in="SourceAlpha" result="shadowOffsetInner" />
      <feGaussianBlur stdDeviation="2.5" in="shadowOffsetInner" result="shadowGaussian" />
      <feComposite in2="shadowGaussian" operator="atop" in="SourceAlpha" result="shadowComposite" />
      <feColorMatrix type="matrix" values="0 0 0 0 0  0 0 0 0 0  0 0 0 0 0  0 0 0 0.349019607843137 0  " in="shadowComposite" />
    </filter>
    <g id="widget29">
      <path d="M 0 105.3  L 0 82.7052631578941  L 0 2.7  C 0 1.18799999999999  1.31999999999999 0  3 0  L 261 0  C 262.68 0  264 1.18799999999999  264 2.7  L 264 105.3  C 264 106.812  262.68 108  261 108  L 3 108  C 1.31999999999999 108  0 106.812  0 105.3  Z " fill-rule="nonzero" fill="#ffffff" stroke="none" fill-opacity="0" transform="matrix(1 0 0 1 472 330 )" />
      <path d="M 0 105.3  L 0 82.7052631578941  L 0 2.7  C 0 1.18799999999999  1.31999999999999 0  3 0  L 261 0  C 262.68 0  264 1.18799999999999  264 2.7  L 264 105.3  C 264 106.812  262.68 108  261 108  L 3 108  C 1.31999999999999 108  0 106.812  0 105.3  Z " stroke-width="2" stroke="#797979" fill="none" transform="matrix(1 0 0 1 472 330 )" mask="url(#clip27)" />
    </g>
  </defs>
  <g transform="matrix(1 0 0 1 -470 -330 )">
    <use xlink:href="#widget29" filter="url(#filter28)" />
    <use xlink:href="#widget29" />
  </g>
</svg>