<?xml version="1.0" encoding="utf-8"?>
<svg version="1.1" xmlns:xlink="http://www.w3.org/1999/xlink" width="124px" height="49px" xmlns="http://www.w3.org/2000/svg">
  <defs>
    <filter x="378px" y="241px" width="124px" height="49px" filterUnits="userSpaceOnUse" id="filter13">
      <feOffset dx="3" dy="5" in="SourceAlpha" result="shadowOffsetInner" />
      <feGaussianBlur stdDeviation="2.5" in="shadowOffsetInner" result="shadowGaussian" />
      <feComposite in2="shadowGaussian" operator="atop" in="SourceAlpha" result="shadowComposite" />
      <feColorMatrix type="matrix" values="0 0 0 0 0  0 0 0 0 0  0 0 0 0 0  0 0 0 0.349019607843137 0  " in="shadowComposite" />
    </filter>
    <g id="widget14">
      <path d="M 380.5 244  A 2.5 2.5 0 0 1 383 241.5 L 491 241.5  A 2.5 2.5 0 0 1 493.5 244 L 493.5 277  A 2.5 2.5 0 0 1 491 279.5 L 383 279.5  A 2.5 2.5 0 0 1 380.5 277 L 380.5 244  Z " fill-rule="nonzero" fill="#ffffff" stroke="none" fill-opacity="0" />
      <path d="M 380.5 244  A 2.5 2.5 0 0 1 383 241.5 L 491 241.5  A 2.5 2.5 0 0 1 493.5 244 L 493.5 277  A 2.5 2.5 0 0 1 491 279.5 L 383 279.5  A 2.5 2.5 0 0 1 380.5 277 L 380.5 244  Z " stroke-width="1" stroke="#797979" fill="none" />
    </g>
  </defs>
  <g transform="matrix(1 0 0 1 -378 -241 )">
    <use xlink:href="#widget14" filter="url(#filter13)" />
    <use xlink:href="#widget14" />
  </g>
</svg>